<?xml version="1.0" encoding="UTF-8" standalone="no"?>
<!DOCTYPE svg PUBLIC "-//W3C//DTD SVG 1.1//EN" "http://www.w3.org/Graphics/SVG/1.1/DTD/svg11.dtd">
<svg width="100%" height="100%" viewBox="0 0 1501 2000" version="1.1" xmlns="http://www.w3.org/2000/svg" xmlns:xlink="http://www.w3.org/1999/xlink" xml:space="preserve" xmlns:serif="http://www.serif.com/" style="fill-rule:evenodd;clip-rule:evenodd;stroke-linejoin:round;stroke-miterlimit:2;">
    <g transform="matrix(1,0,0,1,-1551,0)">
        <g id="Prancheta3" transform="matrix(1,0,0,1,-2050,0)">
            <rect x="3601" y="0" width="1501" height="2000" style="fill:none;"/>
            <g transform="matrix(1.420643,0,0,1.420643,-2832.220408,-426.457937)">
                <g transform="matrix(1.884116,0,0,1.884116,3634.845856,125.716549)">
                    <path d="M781.501,781.5C777.8,763.599 786.541,757.299 776.184,723.592C763.276,681.585 766.705,659.093 767.556,653.509C770.311,635.435 773.009,635.285 768.514,617.497C761.287,588.9 763.137,533.768 760.098,514.554C757.487,498.049 756.489,498.225 756.074,481.529C756.002,478.611 753.299,478.562 753.225,481.478C752.45,512.2 746.972,511.753 747.304,542.503C747.574,567.42 744.473,605.152 739.42,622.476C732.782,645.231 753.087,647.055 736.178,712.418C729.994,736.323 726.781,737.583 728.445,772.503C728.826,780.505 726.535,780.552 727.981,788.409C730.224,800.606 734.344,809.732 728.415,816.388C722.712,817.917 720.147,818.007 693.479,817.813C692.65,817.699 684.959,818.079 685.455,812.497C685.934,807.1 693.526,811.188 699.089,798.32C701.78,792.094 701.481,792.03 705.182,786.29C705.838,785.273 705.952,785.096 708.126,771.441C709.269,764.262 707.708,714.347 700.053,681.608C694.266,656.857 697.096,645.991 698.905,636.603C701.617,626.367 701.65,626.298 700.506,608.499L698.849,602.408C684.665,559.036 684.636,529.578 694.903,455.555C700.446,415.594 707.474,416.058 703.469,376.503C703.063,372.485 703.091,372.541 702.706,368.5C702.251,360.463 702.257,360.544 701.094,352.611C696.753,341.572 695.478,342.27 690.181,331.677C689.377,330.07 688.604,330.005 687.757,331.657C685.187,336.666 685.394,336.705 682.478,341.482C677.675,347.804 676.536,348.485 671.625,365.554C670.136,369.163 661.48,390.143 643.426,405.373C592.391,448.314 593.125,449.264 590.365,454.431C589.138,456.729 586.177,462.274 566.832,476.947C562.51,480.225 561.849,481.897 557.292,479.903C553.281,478.147 553.545,485.813 546.587,482.355C544.61,481.373 538.537,484.826 541.002,477.843C538.221,474.671 535.545,472.386 551.167,454.235C561.038,442.765 559.922,441.238 558.72,441.064C558.486,441.03 541.289,445.056 541.074,438.518C540.908,433.465 547.341,437.207 560.452,432.374C572.138,428.065 576.929,435.169 584.351,428.338C616.885,398.397 612.576,372.802 635.489,351.489C639.706,347.566 643.494,347.083 644.524,337.501C648.479,300.719 655.07,302.775 660.222,290.379C666.679,274.844 653.886,249.016 688.596,238.816C701.085,235.145 701.665,236.688 712.785,229.992C723.373,223.616 733.059,223.707 733.335,218.482C734.217,201.808 731.672,202.196 729.713,197.406C727.745,192.592 728.866,191.736 725.738,190.031C718.815,186.258 717.698,166.387 720.391,165.268C724.357,163.618 720.301,158.392 722.097,145.421L722.382,143.494C727.561,109.765 765.269,107.212 780.17,126.755C792.174,142.498 785.725,163.068 787.464,164.529C789.359,166.121 791.114,165.852 790.019,173.423C788.022,187.232 787.297,187.937 782.515,190.524C781.605,191.016 781.34,192.09 781.244,192.429C780.176,196.186 780.243,196.101 778.796,199.658C774.85,208.604 775.197,208.786 775.898,218.46C776.284,223.781 782.429,221.753 798.255,230.986C820.631,244.041 843.759,233.817 846.632,272.491C847.586,285.341 846.04,285.995 853.018,296.807C866.617,317.879 861.604,340.809 868.916,347.071C891.687,366.569 887.414,372.369 900.636,397.425C901.392,398.72 907.689,409.505 911.082,412.99L913.144,415.677L915.107,417.904L916.455,419.554L918.843,422.173C922.8,426.224 927.136,431.787 931.496,431.424C942.25,430.531 942.311,430.43 952.453,433.636C957.373,435.191 972.622,434.643 967.364,440.37C964.536,443.45 955.48,441.907 954.456,441.732C950.542,441.065 950.065,440.184 949.579,441.521C948.345,444.914 975.774,470.595 969.451,476.441C967.127,478.59 970.619,482.977 965.51,482.452C960.632,481.951 960.104,484.788 956.2,481.852C953.217,479.608 952.998,479.379 951.382,480.263C946.601,482.875 942.177,475.897 927.817,465.111C917.008,456.993 921.198,453.201 910.341,443.677C849.958,390.704 846.266,391.947 835.051,356.649C830.68,342.892 826.882,344.856 821.424,331.552C819.946,327.948 817.093,337.191 813.011,343.167C807.833,350.749 808.115,351.146 805.296,382.478C802.004,419.071 812.189,420.55 819.119,493.529C826.549,571.778 815.61,578.407 808.839,608.555C806.153,620.514 809.762,634.373 810.327,636.543C818.754,668.899 800.275,693.379 800.64,766.499C800.68,774.582 802.174,774.388 802.427,782.506C802.477,784.128 803.683,785.988 803.858,786.257C806.448,790.253 806.515,790.154 808.382,794.535C811.97,802.697 812.222,805.037 820.336,808.862C823.035,810.135 828.359,816.157 817.501,817.532L815.567,817.858L814.579,817.917C794.538,817.79 791.483,817.721 789.475,817.676C784.982,817.187 785.002,817.606 780.62,816.331C774.117,808.969 779.597,802.336 781.657,783.507L781.501,781.5Z" style="fill:rgb(63,67,128);"/>
                </g>
                <g transform="matrix(1.884116,0,0,1.884116,3634.845856,125.716549)">
                    <path d="M733.424,295.551C738.594,302.777 739.726,311.378 746.662,318.347C748.038,319.729 752.048,320.317 749.571,336.51C746.573,356.119 726.26,386.577 723.598,390.569C723.489,390.732 721.015,395.935 719.749,394.361C719.648,394.235 723.683,368.209 706.349,349.642C705.06,348.261 687.257,334.619 684.564,284.499C684.274,279.105 687.265,281.967 692.491,283.531C702.128,286.414 713.371,288.44 715.458,288.758C725.28,290.251 726.086,288.868 733.424,295.551Z" style="fill:rgb(146,220,252);"/>
                </g>
                <g transform="matrix(1.884116,0,0,1.884116,3634.845856,125.716549)">
                    <path d="M798.577,287.854C822.134,282.591 824.283,280.13 824.237,283.517C823.645,326.987 806.796,345.014 803.034,349.039C779.75,373.952 793.4,404.087 786.715,393.324C768.782,364.45 757.92,348.371 758.487,323.499C758.578,319.487 764.552,319.425 771.085,303.345C777.199,288.295 782.726,290.616 798.577,287.854Z" style="fill:rgb(146,220,252);"/>
                </g>
                <g transform="matrix(1.884116,0,0,1.884116,3634.845856,125.716549)">
                    <path d="M765.575,484.417C746.664,463.43 765.196,443.151 767.565,440.559C782.291,424.445 786.268,412.733 788.73,408.715C789.567,407.348 791.312,409.367 791.462,409.54C818.064,440.323 809.262,489.336 808.371,495.466C807.854,499.02 806.111,495.447 793.383,491.964C779.199,488.083 777.491,492.973 765.575,484.417Z" style="fill:rgb(146,221,252);"/>
                </g>
                <g transform="matrix(1.884116,0,0,1.884116,3634.845856,125.716549)">
                    <path d="M700.207,475.51C700.236,468.712 699.778,463.069 701.812,448.543C704.475,429.532 716.965,405.592 720.108,408.849C724.089,412.975 720.078,416.587 741.332,440.65C760.675,462.548 749.177,488.194 730.445,490.001C703.673,492.583 705.746,498.934 703.473,498.954C701.3,498.974 700.411,478.839 700.207,475.51Z" style="fill:rgb(146,220,252);"/>
                </g>
                <g transform="matrix(1.884116,0,0,1.884116,3634.845856,125.716549)">
                    <path d="M777.474,226.599C779.708,227.31 797.739,233.052 804.077,238.895C808.797,243.247 791.721,236.334 775.887,270.678C773.669,275.49 768.775,299.766 759.134,314.095C756.238,318.398 757.627,311.355 756.686,209.499C756.661,206.726 755.749,193.4 758.734,196.068C762.28,199.237 754.559,218.049 777.474,226.599Z" style="fill:rgb(145,219,251);"/>
                </g>
                <g transform="matrix(1.884116,0,0,1.884116,3634.845856,125.716549)">
                    <path d="M737.792,287.458C735.803,280.317 732.782,262.783 718.118,248.939C709.299,240.613 700.836,241.322 706.215,238.096C733.056,221.998 738.627,228.807 745.293,215.397C749.569,206.793 748.807,202.049 749.245,197.434C749.444,195.339 751.945,195.468 752.105,197.566C752.29,199.99 751.67,248.105 751.614,252.499C751.022,298.42 751.311,313.433 750.87,313.936C748.135,317.055 738.571,289.688 737.792,287.458Z" style="fill:rgb(145,220,251);"/>
                </g>
                <g transform="matrix(1.884116,0,0,1.884116,3634.845856,125.716549)">
                    <path d="M776.752,540.569C788.101,498.285 787.887,498.161 788.601,497.599C790.419,496.168 790.912,498.372 791.063,526.421C791.065,526.753 789.129,583.824 789.017,585.474C788.824,588.305 787.703,604.787 778.149,619.227C774.567,624.64 771.761,596.633 771.861,584.506C771.994,568.479 774.289,554.761 776.752,540.569Z" style="fill:rgb(145,219,250);"/>
                </g>
                <g transform="matrix(1.884116,0,0,1.884116,3634.845856,125.716549)">
                    <path d="M724.646,510.455C731.064,531.589 743.928,577.424 733.459,619.477C732.292,624.168 722.237,603.978 720.812,591.462C719.603,580.848 717.338,499.041 719.487,497.479C720.437,496.788 720.634,497.663 724.646,510.455Z" style="fill:rgb(145,219,250);"/>
                </g>
                <g transform="matrix(1.884116,0,0,1.884116,3634.845856,125.716549)">
                    <path d="M795.156,519.509C794.997,517.833 793.859,505.82 793.617,498.525C793.601,498.045 794.523,496.805 796.202,498C797.384,498.842 821.982,509.573 807.344,586.473C804.562,601.091 802.962,607.862 801.679,604.373C793.274,581.515 796.428,541.568 795.156,519.509Z" style="fill:rgb(145,219,250);"/>
                </g>
                <g transform="matrix(1.884116,0,0,1.884116,3634.845856,125.716549)">
                    <path d="M711.39,499.36C712.393,498.672 712.308,498.722 713.3,498.051C715.378,496.645 715.688,497.998 715.532,500.502C713.821,528.007 714.131,527.93 713.841,555.503C713.445,593.192 706.791,610.079 705.649,604.425C696.9,561.12 689.843,519.306 711.39,499.36Z" style="fill:rgb(145,219,251);"/>
                </g>
                <g transform="matrix(1.884116,0,0,1.884116,3634.845856,125.716549)">
                    <path d="M776.748,387.316C784.602,397.93 786.626,397.765 785.074,401.33C775.815,422.599 758.582,445.229 758.291,439.574C757.515,424.482 757.58,371.427 757.587,365.501C757.603,352.474 756.515,347.679 758.706,351.087C761.98,356.179 756.734,358.916 776.748,387.316Z" style="fill:rgb(145,219,251);"/>
                </g>
                <g transform="matrix(1.884116,0,0,1.884116,3634.845856,125.716549)">
                    <path d="M749.721,350.657C750.198,350.887 750.832,350.403 751.31,350.632C752.069,350.998 750.615,432.389 750.488,439.497C750.361,446.601 729.551,416.755 723.416,400.527C721.657,395.874 744.004,379.979 749.721,350.657Z" style="fill:rgb(145,219,251);"/>
                </g>
                <g transform="matrix(1.884116,0,0,1.884116,3634.845856,125.716549)">
                    <path d="M777.701,702.165C769.447,695.067 768.805,667.463 771.993,652.613C772.455,650.457 777.657,626.223 777.977,625.709C785.763,613.195 787.758,606.737 787.883,612.389C788.007,617.997 788.588,644.293 787.904,682.507C787.65,696.651 785.959,705.302 777.701,702.165Z" style="fill:rgb(145,219,251);"/>
                </g>
                <g transform="matrix(1.884116,0,0,1.884116,3634.845856,125.716549)">
                    <path d="M722.145,692.552C721.379,683.779 720.615,632.665 721.513,611.505C721.521,611.311 722.362,608.784 723.821,612.249C728.184,622.612 730.567,621.557 733.045,632.593C740.782,667.041 739.931,674.295 737.242,690.456C737.031,691.722 734.634,706.134 726.541,702.42C724.075,701.288 722.331,693.396 722.145,692.552Z" style="fill:rgb(144,218,251);"/>
                </g>
                <g transform="matrix(1.884116,0,0,1.884116,3634.845856,125.716549)">
                    <path d="M794.211,611.474C794.663,606.93 795.519,592.026 796.797,599.219C798.638,609.584 801.297,609.007 801.285,612.501C801.234,627.987 803.726,627.53 807.087,642.581C815.83,681.735 793.564,704.359 792.389,687.511C790.51,660.584 793.754,617.542 794.211,611.474Z" style="fill:rgb(145,219,250);"/>
                </g>
                <g transform="matrix(1.884116,0,0,1.884116,3634.845856,125.716549)">
                    <path d="M713.402,597.777C713.671,598.061 713.939,598.346 714.208,598.631C714.527,604.985 714.522,604.945 714.553,605.494C716.801,645.502 718.634,645.413 717.072,685.485C716.501,700.117 707.011,689.69 704.697,684.415C693.842,659.662 707.135,625.903 707.384,624.476C708.908,615.74 706.09,615.132 710.233,607.362C713.405,601.415 710.91,600.198 713.402,597.777Z" style="fill:rgb(144,219,250);"/>
                </g>
                <g transform="matrix(1.884116,0,0,1.884116,3634.845856,125.716549)">
                    <path d="M683.659,244.921C691.011,242.607 690.93,242.605 698.489,241.347C702.785,240.632 700.998,255.162 696.168,263.29C694.776,265.632 686.86,278.95 668.469,283.11C666.701,283.51 666.72,278.895 666.721,278.5C666.825,252.232 677.356,247.909 683.659,244.921Z" style="fill:rgb(145,219,251);"/>
                </g>
                <g transform="matrix(1.884116,0,0,1.884116,3634.845856,125.716549)">
                    <path d="M824.407,244.731C832.308,248.39 841.327,252.337 841.937,276.49C842.057,281.215 842.972,284.091 838.488,282.537C802.838,270.176 807.186,241.689 809.466,241.323C813.431,240.686 823.257,244.307 824.407,244.731Z" style="fill:rgb(146,220,251);"/>
                </g>
                <g transform="matrix(1.884116,0,0,1.884116,3634.845856,125.716549)">
                    <path d="M824.227,313.461C828.522,286.51 827.457,286.421 827.934,282.684C827.958,282.498 828.142,281.058 830.279,282.806C850.483,299.334 840.976,320.792 839.547,333.504C838.547,342.403 844.554,348.066 838.47,345.599C820.54,338.329 823.203,322.901 824.227,313.461Z" style="fill:rgb(145,219,250);"/>
                </g>
                <g transform="matrix(1.884116,0,0,1.884116,3634.845856,125.716549)">
                    <path d="M788.53,284.886C783.942,285.066 776.588,287.125 777.924,281.599C783.467,258.671 800.918,245.556 802.427,246.597C803.158,247.101 802.031,265.487 817.148,275.936C817.322,276.057 819.773,277.751 817.537,278.554C803.986,283.422 796.592,283.83 788.53,284.886Z" style="fill:rgb(145,220,251);"/>
                </g>
                <g transform="matrix(1.884116,0,0,1.884116,3634.845856,125.716549)">
                    <path d="M712.446,283.852C710.677,283.551 692.332,280.426 690.725,278.267C689.689,276.875 693.83,274.349 694.109,274.088C706.736,262.299 705.617,249.374 705.786,247.557C706.509,239.807 730.795,269.69 731.235,283.503C731.283,285.006 730.48,285.888 712.446,283.852Z" style="fill:rgb(145,220,251);"/>
                </g>
                <g transform="matrix(1.884116,0,0,1.884116,3634.845856,125.716549)">
                    <path d="M669.256,336.445C668.279,313.992 657.243,303.786 677.585,283.6C677.768,283.419 680.533,280.675 680.796,283.403C682.299,299 682.42,298.899 684.716,314.469C686.863,329.031 681.626,336.893 680.544,338.518L676.867,341.999C673.407,344.606 665.562,349.01 668.203,343.41C669.758,340.114 669.127,340.025 669.256,336.445Z" style="fill:rgb(144,219,251);"/>
                </g>
                <g transform="matrix(1.884116,0,0,1.884116,3634.845856,125.716549)">
                    <path d="M741.706,581.349C741.618,580.262 741.998,536.938 726.665,501.432C724.961,497.487 724.095,497.326 725.129,496.199C725.484,495.812 738.126,494.767 745.43,488.239C748.251,485.718 746.479,489.801 744.532,508.503C740.327,548.893 744.554,548.973 743.676,573.541C743.662,573.932 743.53,573.91 743.252,578.418C743.09,581.059 741.971,580.847 741.706,581.349Z" style="fill:rgb(143,216,248);"/>
                </g>
                <g transform="matrix(1.884116,0,0,1.884116,3634.845856,125.716549)">
                    <path d="M770.588,546.522C767.635,559.327 768.365,578.785 767.674,580.658C765.859,585.575 765.832,574.075 765.83,573.482C765.754,540.918 768.156,540.899 764.808,508.464C763.077,491.696 761.256,486.089 764.451,488.584C765.613,489.492 772.419,494.808 781.485,495.605C785.744,495.979 784.428,497.793 783.198,500.382C777.845,511.646 771.031,537.201 770.588,546.522Z" style="fill:rgb(143,214,246);"/>
                </g>
                <g transform="matrix(1.884116,0,0,1.884116,3634.845856,125.716549)">
                    <path d="M584.431,439.601C584.758,439.923 585.085,440.245 585.411,440.567C586.601,441.963 592.095,446.267 585.369,455.403C575.746,468.473 567.834,462.945 561.709,460.159C552.385,455.917 559.343,448.717 564.959,441.879C574.464,430.306 581.282,437.423 584.431,439.601Z" style="fill:rgb(145,220,250);"/>
                </g>
                <g transform="matrix(1.884116,0,0,1.884116,3634.845856,125.716549)">
                    <path d="M939.437,463.322C934.587,464.233 932.71,465.418 924.827,457.198C912.027,443.851 929.795,430.628 939.401,437.629C939.542,437.732 954.151,450.93 951.237,456.373C949.617,459.399 946.542,460.389 939.437,463.322Z" style="fill:rgb(145,220,251);"/>
                </g>
                <g transform="matrix(1.884116,0,0,1.884116,3634.845856,125.716549)">
                    <path d="M884.494,398.47C868,389.75 850.573,383.239 841.738,356.423C841.612,356.038 839.992,351.121 842.498,351.42C857.201,353.175 861.193,362.608 861.92,364.326C862.782,366.362 867.801,378.223 875.967,388.121C882.094,395.548 884.169,394.332 884.494,398.47Z" style="fill:rgb(144,218,249);"/>
                </g>
                <g transform="matrix(1.884116,0,0,1.884116,3634.845856,125.716549)">
                    <path d="M584.431,439.601C602.179,414.752 643.357,392.931 648.132,389.039C664.418,375.763 672.405,348.337 666.271,368.464C657.592,396.944 625.179,410.072 617.721,414.847C589.291,433.05 591.541,435.899 585.411,440.567C585.085,440.245 584.758,439.923 584.431,439.601Z" style="fill:rgb(146,213,242);"/>
                </g>
                <g transform="matrix(1.884116,0,0,1.884116,3634.845856,125.716549)">
                    <path d="M842.214,367.499C840.687,360.625 844.112,367.617 844.16,367.766C847.31,374.052 852.004,383.919 867.739,394.134C879.338,401.664 880.899,399.331 909.419,423.62L910.393,424.587C913.428,427.231 917.35,430.741 917.952,431.28C919.913,433.035 920.988,432.855 920.147,434.327C918.821,436.648 918.532,434.359 916.423,432.685C876.81,401.262 855.558,404.164 842.214,367.499Z" style="fill:rgb(143,214,244);"/>
                </g>
                <g transform="matrix(1.884116,0,0,1.884116,3634.845856,125.716549)">
                    <path d="M650.654,382.781C640.475,390.938 639.705,389.579 628.421,396.224C628.149,396.384 621.841,400.099 624.487,396.494C627.643,392.194 630.125,394.21 642.61,373.552C644.836,367.415 645.216,367.664 647.686,361.597C649.962,356.009 669.407,348.035 667.827,353.54C667.35,355.202 666.775,356.834 666.299,358.495C661.238,370.61 658.461,374.751 650.654,382.781Z" style="fill:rgb(170,226,250);"/>
                </g>
                <g transform="matrix(1.884116,0,0,1.884116,3634.845856,125.716549)">
                    <path d="M707.078,374.531C706.065,364.18 706.294,364.216 705.666,360.485C702.152,339.587 725.582,389.397 712.052,408.174C708.579,412.994 708.943,413.283 708.456,413.435C708.126,413.539 706.849,412.687 706.856,412.475C707.052,406.189 709.215,406.219 707.078,374.531Z" style="fill:rgb(143,216,247);"/>
                </g>
                <g transform="matrix(1.884116,0,0,1.884116,3634.845856,125.716549)">
                    <path d="M624.724,391.744C622.769,394.086 613.872,404.742 598.445,419.371L596.999,419.252C604.177,407.642 607.889,409.943 622.645,377.574C624.197,373.781 624.145,373.865 626.21,370.292C626.9,368.925 629.552,361.527 645.537,347.735C646.817,348.573 647.373,349.215 641.138,366.35C637.401,376.619 632.207,382.372 628.749,386.697C625.871,390.192 625.835,390.096 624.724,391.744Z" style="fill:rgb(144,218,248);"/>
                </g>
                <g transform="matrix(-1.884028,0.018247,0.018247,1.884028,6469.286828,114.406746)">
                    <path d="M624.724,391.744C622.769,394.086 613.872,404.742 598.445,419.371L596.999,419.252C604.177,407.642 607.889,409.943 622.645,377.574C624.197,373.781 624.145,373.865 626.21,370.292C626.9,368.925 629.552,361.527 645.537,347.735C646.817,348.573 647.373,349.215 641.138,366.35C637.401,376.619 632.207,382.372 628.749,386.697C625.871,390.192 625.835,390.096 624.724,391.744Z" style="fill:rgb(144,218,248);"/>
                </g>
                <g transform="matrix(1.884116,0,0,1.884116,3634.845856,125.716549)">
                    <path d="M711.138,730.543C708.231,708.802 708.221,708.854 705.26,693.478C704.568,689.881 707.919,692.609 709.465,696.516C711.857,702.563 716.985,715.523 716.477,777.497C716.458,779.868 714.272,779.997 714.154,777.577C713.328,760.624 714.119,760.67 711.138,730.543Z" style="fill:rgb(139,207,239);"/>
                </g>
                <g transform="matrix(1.884116,0,0,1.884116,3634.845856,125.716549)">
                    <path d="M795.231,718.468C795.527,716.229 798.802,691.51 803.497,691.471C805.089,691.457 803.217,696.93 802.918,698.564C794.969,742.028 795.322,777.954 795.16,778.382C795.056,778.658 792.865,780.389 792.87,775.483C792.907,742.534 794.792,723.012 795.231,718.468Z" style="fill:rgb(141,207,241);"/>
                </g>
                <g transform="matrix(1.884116,0,0,1.884116,3634.845856,125.716549)">
                    <path d="M801.859,371.532C799.319,399.753 800.572,399.782 800.771,404.588C800.928,408.365 794.396,400.317 792.772,394.437C788.844,380.216 805.988,343.099 803.238,359.481C802.806,362.056 802.888,362.042 801.859,371.532Z" style="fill:rgb(143,216,247);"/>
                </g>
                <g transform="matrix(1.884116,0,0,1.884116,3634.845856,125.716549)">
                    <path d="M852.621,331.436C853.174,332.661 858.099,343.573 857.535,347.504C856.322,355.954 843.877,349.971 844.063,335.499C844.08,334.188 844.474,303.539 847.554,319.48C848.251,323.089 852.139,330.515 852.621,331.436Z" style="fill:rgb(144,219,249);"/>
                </g>
                <g transform="matrix(1.884116,0,0,1.884116,3634.845856,125.716549)">
                    <path d="M693.816,558.55C693.646,558.28 694.08,557.869 693.911,557.599C693.702,557.267 693.021,557.408 692.872,557.045C688.302,545.892 694.675,453.056 697.564,488.493C699.161,508.081 695.629,507.854 694.338,527.485C693.015,547.618 695.016,552.69 693.816,558.55Z" style="fill:rgb(138,205,237);"/>
                </g>
                <g transform="matrix(1.884116,0,0,1.884116,3634.845856,125.716549)">
                    <path d="M813.534,481.398C816.173,485.253 819.104,527.779 817.975,536.644C817.696,538.836 818.106,548.632 816.914,553.955C812.821,572.23 819.032,534.705 811.746,505.463C811.033,502.597 810.984,484.31 813.534,481.398Z" style="fill:rgb(142,209,240);"/>
                </g>
                <g transform="matrix(1.884116,0,0,1.884116,3634.845856,125.716549)">
                    <path d="M652.789,328.633C652.525,329.192 650.461,333.566 649.853,335.773C648.823,339.506 647.499,337.733 647.473,337.5C647.415,336.966 649.696,321.813 651.803,315.601C656.518,301.702 667.187,284.502 663.443,297.489C658.865,313.37 659.028,313.37 652.789,328.633Z" style="fill:rgb(142,213,243);"/>
                </g>
                <g transform="matrix(1.884116,0,0,1.884116,3634.845856,125.716549)">
                    <path d="M844.506,293.504L845.562,293.258C858.547,310.202 860.727,333.322 860.946,334.546C864.009,351.737 844.858,302.663 844.506,293.504Z" style="fill:rgb(144,214,244);"/>
                </g>
                <g transform="matrix(1.884116,0,0,1.884116,3634.845856,125.716549)">
                    <path d="M733.324,704.598C723.276,731.638 724.304,755.783 723.057,760.235C721.035,767.461 721.652,753.119 721.679,752.491C723.379,712.985 725.623,705.704 733.324,704.598Z" style="fill:rgb(138,201,234);"/>
                </g>
                <g transform="matrix(1.884116,0,0,1.884116,3634.845856,125.716549)">
                    <path d="M775.768,704.568C787.819,706.038 786.115,732.039 787.99,757.616C788.003,757.796 787.422,765.12 785.873,758.395C785.55,756.989 785.268,726.474 775.768,704.568Z" style="fill:rgb(137,202,235);"/>
                </g>
                <g transform="matrix(1.884116,0,0,1.884116,3634.845856,125.716549)">
                    <path d="M664.207,341.379C663.713,342.469 658.156,354.76 652.771,351.026C649.773,348.947 652.43,340.441 652.704,339.566C653.492,336.953 653.548,337.077 654.346,334.39L655.153,333.193C657.819,327.71 660.092,325.671 661.627,316.56C661.805,315.507 663.35,314.716 663.564,317.475C665.004,336.026 664.613,336.033 664.609,337.483C664.495,339.509 664.565,339.41 664.207,341.379Z" style="fill:rgb(144,218,246);"/>
                </g>
                <g transform="matrix(1.884116,0,0,1.884116,3634.845856,125.716549)">
                    <path d="M624.462,414.889C625.232,416.877 624.245,416.919 612.093,427.062C609.309,429.386 592.439,445.535 592.647,438.503C592.736,435.481 612.365,424.166 622.653,415.818C622.78,415.716 622.787,415.749 624.462,414.889Z" style="fill:rgb(140,207,237);"/>
                </g>
                <g transform="matrix(1.884116,0,0,1.884116,3634.845856,125.716549)">
                    <path d="M771.576,204.472C771.753,205.472 774.644,221.758 769.875,217.055C768.744,215.939 763.192,210.464 762.755,198.518C762.711,197.311 766.24,194.855 771.576,204.472Z" style="fill:rgb(144,217,248);"/>
                </g>
                <g transform="matrix(1.884116,0,0,1.884116,3634.845856,125.716549)">
                    <path d="M739.695,200.693C742.047,198.578 741.797,198.347 744.624,196.874C746.528,195.882 745.695,202.063 745.634,202.518C743.974,214.824 736.491,220.295 736.4,216.517C736.049,201.978 739.225,201.272 739.695,200.693Z" style="fill:rgb(143,218,246);"/>
                </g>
                <g transform="matrix(1.884116,0,0,1.884116,3634.845856,125.716549)">
                    <path d="M913.45,439.927C909.724,438.733 909.82,438.567 906.868,436.024C886.704,418.652 886.358,419.065 884.824,417.335C881.688,413.799 886.642,415.965 891.37,419.704C904.221,429.872 922.606,438.425 913.45,439.927Z" style="fill:rgb(141,210,240);"/>
                </g>
                <g transform="matrix(1.884116,0,0,1.884116,3634.845856,125.716549)">
                    <path d="M543.338,477.362C552.934,465.646 557.155,459.332 559.152,462.846C560.109,464.53 538.926,488.359 543.338,477.362Z" style="fill:rgb(144,219,245);"/>
                </g>
                <g transform="matrix(1.884116,0,0,1.884116,3634.845856,125.716549)">
                    <path d="M966.035,480.163C964.365,479.812 962.63,479.447 950.635,465.393C948.051,462.365 951.245,460.622 953.235,462.767C965.789,476.305 965.925,478.439 966.035,480.163Z" style="fill:rgb(143,220,247);"/>
                </g>
                <g transform="matrix(1.884116,0,0,1.884116,3634.845856,125.716549)">
                    <path d="M952.041,475.984C944.237,468.122 944.196,468.175 943.543,467.469C941.31,465.052 946.008,464.575 946.448,464.755C946.8,464.9 959.438,478.438 959.854,479.456C961.859,484.361 952.562,476.428 952.041,475.984Z" style="fill:rgb(141,220,246);"/>
                </g>
                <g transform="matrix(1.884116,0,0,1.884116,3634.845856,125.716549)">
                    <path d="M556.352,476.349C555.835,476.747 546.823,483.7 548.836,479.516C550.139,476.806 552.17,476.826 560.908,465.981C563.061,463.309 566.828,465.604 565.289,467.365C564.86,467.856 557.069,475.633 556.352,476.349Z" style="fill:rgb(144,219,245);"/>
                </g>
                <g transform="matrix(1.884116,0,0,1.884116,3634.845856,125.716549)">
                    <path d="M945.633,437.26C940.845,435.068 938.469,434.661 938.882,433.605C940.008,430.731 941.406,435.726 962.537,437.349C971.008,438 958.968,442.327 945.633,437.26Z" style="fill:rgb(146,219,245);"/>
                </g>
                <g transform="matrix(1.884116,0,0,1.884116,3634.845856,125.716549)">
                    <path d="M562.503,437.507C544.874,442.155 543.618,438.553 544.721,437.655C545.782,436.793 546.308,439.268 561.554,434.719C562.16,434.538 570.856,431.943 569.452,434.466C569.157,434.996 569.038,434.866 562.503,437.507Z" style="fill:rgb(143,218,245);"/>
                </g>
                <g transform="matrix(1.884116,0,0,1.884116,3634.845856,125.716549)">
                    <path d="M958.582,459.426C959.427,460.481 972.402,476.688 966.524,474.335C966.047,474.144 954.621,460.805 954.458,459.502C954.417,459.174 954.466,454.899 958.582,459.426Z" style="fill:rgb(143,218,246);"/>
                </g>
                <g transform="matrix(1.884116,0,0,1.884116,3634.845856,125.716549)">
                    <path d="M553.906,458.158C554.986,461.799 542.386,474.305 541.597,474.152C539.249,473.698 550.754,456.391 553.405,457.659C553.618,457.76 553.693,458.056 553.906,458.158Z" style="fill:rgb(140,219,246);"/>
                </g>
                <g transform="matrix(1.884116,0,0,1.884116,3634.845856,125.716549)">
                    <path d="M559.84,478.286C559.818,477.339 559.267,477.141 560.662,475.632C568.577,467.067 570.425,467.35 571.496,467.514C574.887,468.033 564.383,477.372 559.84,478.286Z" style="fill:rgb(144,221,247);"/>
                </g>
                <g transform="matrix(1.884116,0,0,1.884116,3634.845856,125.716549)">
                    <path d="M936.573,467.631C940.541,467.145 941.279,468.804 948.203,475.743C954.629,482.182 945.996,477.26 945.819,477.128C936.977,470.498 936.684,469.46 936.406,468.476L936.573,467.631Z" style="fill:rgb(145,218,247);"/>
                </g>
                <g transform="matrix(1.884116,0,0,1.884116,3634.845856,125.716549)">
                    <path d="M719.511,598.724C719.237,598.453 718.633,598.896 718.359,598.625C717.289,597.566 720.236,595.222 720.246,597.5C720.248,597.976 719.509,598.248 719.511,598.724Z" style="fill:rgb(91,86,150);"/>
                </g>
            </g>
        </g>
    </g>
</svg>
