<?xml version="1.0" encoding="UTF-8" standalone="no"?>
<!DOCTYPE svg PUBLIC "-//W3C//DTD SVG 1.1//EN" "http://www.w3.org/Graphics/SVG/1.1/DTD/svg11.dtd">
<svg width="100%" height="100%" viewBox="0 0 1501 2000" version="1.1" xmlns="http://www.w3.org/2000/svg" xmlns:xlink="http://www.w3.org/1999/xlink" xml:space="preserve" xmlns:serif="http://www.serif.com/" style="fill-rule:evenodd;clip-rule:evenodd;stroke-linejoin:round;stroke-miterlimit:2;">
    <g id="Prancheta2" transform="matrix(0.7505,0,0,1,-1538.525,0)">
        <rect x="2050" y="0" width="2000" height="2000" style="fill:none;"/>
        <g transform="matrix(3.558782,0,0,2.670866,2033.795204,-241.27082)">
            <path d="M209.19,503.447L209.455,501.5C216.53,420.443 226.905,421.363 224.207,385.522C221.384,348.019 219.686,348.229 218.115,345.744C213.776,338.883 213.982,338.879 210.147,331.701C207.936,327.564 208.716,333.538 199.953,344.852C189.515,358.329 196.212,378.502 158.915,408.982C154.944,412.227 116.263,445.815 114.622,447.619C108.25,454.624 111.8,457.741 98.848,466.992C89.921,473.368 83.692,483.268 77.286,479.886C73.675,477.98 73.907,486.276 66.556,482.409C65.482,481.844 59.785,483.969 60.26,479.46C60.504,477.142 59.976,477.308 58.784,475.357C55.101,469.327 85.99,439.557 78.394,440.967C77.014,441.223 58.305,444.695 61.226,437.376C63.083,432.722 65.639,437.313 81.393,432.154C93.921,428.052 96.639,435.978 105.36,427.352C142.773,390.346 130.325,371.425 159.219,348.136C171.284,338.411 156.948,326.78 179.212,292.323C186.415,281.175 175.809,253.199 199.424,242.334C215.644,234.871 217.163,238.821 232.782,229.993C247.688,221.567 253.53,225.54 253.478,214.5C253.436,205.507 253.296,205.459 250.233,198.584C247.651,192.788 249.032,191.777 245.723,190.036C244.121,189.192 239.064,186.529 238.756,168.501C238.688,164.492 242.296,165.319 242.219,163.483C241.81,153.764 238.081,135.448 254.738,120.801C263.65,112.966 310.1,103.852 307.487,158.499C307.266,163.109 306.025,163.769 308.201,164.987C309.554,165.744 312.42,167.348 308.03,184.366C306.513,190.246 302.541,187.803 301.016,193.387C298.658,202.021 296.217,201.338 295.923,209.514C295.634,217.539 294.785,220.946 300.346,222.926C317.31,228.966 315.909,232.521 333.427,236.785C378.441,247.739 360.867,270.384 369.243,290.613C373.526,300.958 380.829,301.716 384.529,335.498C384.745,338.628 384.509,338.559 385.283,341.556L385.884,343.178C388.56,347.213 388.94,346.837 396.358,353.649C398.316,355.725 398.269,355.673 400.026,357.863C419.716,384.637 413.946,398.235 443.744,427.247C452.538,435.809 454.997,428.477 467.367,431.933C475.859,434.305 475.744,434.53 484.511,435.294C489.282,435.71 490.325,442.572 480.502,442.381C474.935,442.272 468.213,439.754 469.623,442.453C473.702,450.264 495.903,472.357 489.476,476.471C487.297,477.866 490.631,483.2 485.5,482.501C480.929,481.879 480.473,484.975 476.686,482.248C473.866,480.217 473.782,479.525 470.534,480.678C468.456,481.415 467.817,481.642 447.781,465.115C437.04,456.255 440.727,453.016 430.337,443.683C395.54,412.427 385.36,407.408 370.852,389.22C362.709,377.642 362.483,377.787 357.449,364.518C352.904,349.891 352.565,350.042 347.068,341.789C341.151,332.904 340.912,328.091 339.034,332.149C331.857,347.652 327.983,346.477 326.889,363.521C325.506,385.095 324.111,388.346 324.549,401.495C324.826,404.547 324.918,404.463 325.187,407.545C325.377,408.581 326.826,416.461 327.469,420.51C329.214,427.361 329.215,427.355 329.259,427.553C355.548,556.393 330.437,600.368 328.842,608.553C326.444,620.854 329.728,634.377 330.257,636.557C338.912,672.197 321.969,679.784 320.632,762.501C320.508,770.183 323.054,769.853 322.922,777.528C322.813,783.866 328.166,788.862 330.166,793.647C333.152,800.794 333.238,800.787 338.953,806.019C339.367,806.397 342.267,809.053 341.587,812.517C341.039,815.303 335.077,816.904 334.421,817.08C321.883,817.738 321.887,816.123 309.525,817.778C304.77,818.415 304.741,818.029 300.6,815.434C295.618,805.978 302.954,801.357 300.253,778.526C298.601,764.561 305.275,754.269 297.299,727.579C273.754,648.786 295.555,646.509 290.299,624.543C277.408,570.661 286.19,549.3 279.015,508.583C274.388,482.329 277.768,474.797 273.621,479.6C271.99,481.489 274.995,482.174 269.89,510.571C264.964,537.965 269.388,582.229 260.061,620.38C253.954,645.36 267.15,649.309 262.107,683.444C255.408,728.788 244.575,731.913 249.102,769.555C250.603,782.033 247.347,782.046 249.102,794.553C251.515,811.75 249.112,814.769 248.036,816.121C240.859,819.716 240.466,816.972 234.506,817.096C224.519,817.304 224.623,817.497 214.568,817.021C213.784,816.816 206.865,816.072 207.569,810.51C208.203,805.506 214.617,804.578 217.2,798.363C220.491,790.448 221.432,791.026 225.046,783.281C227.529,777.96 225.333,775.984 226.886,771.638C228.371,767.481 230.68,761.018 225.741,716.473C220.258,667.014 211.168,666.79 220.17,632.417C223.981,617.866 218.113,600.236 217.23,597.583C207.644,568.785 207.894,542.431 207.813,537.527C207.8,531.14 207.194,531.059 209.19,503.447ZM214.456,529.494C214.316,543.166 210.874,568.199 221.508,598.497C228.9,619.558 235.673,597.076 236.145,594.431C237.667,585.906 232.258,583.768 225.688,537.473C220.581,501.489 220.648,483.204 220.665,478.467C220.666,478.134 220.697,469.639 218.85,474.724C217.925,477.272 219.209,477.435 215.913,508.48C215.267,519.009 215.256,518.935 214.456,529.494Z" style="fill:rgb(60,62,124);"/>
        </g>
        <g transform="matrix(3.558782,0,0,2.670866,2033.795204,-241.27082)">
            <path d="M237.471,245.093C244.102,244.897 245.803,245.068 246.523,245.14C255.605,246.053 269.22,242.768 270.746,256.473C273.748,283.432 269.667,295.341 268.574,298.528C262.311,316.804 219.765,308.98 204.9,283.297C203.561,280.985 210.949,276.193 211.111,276.055C227.966,261.78 222.393,247.212 237.471,245.093Z" style="fill:rgb(146,221,252);"/>
        </g>
        <g transform="matrix(3.558782,0,0,2.670866,2033.795204,-241.27082)">
            <path d="M313.419,306.248C281.907,313.483 278.8,302.587 277.416,278.51C277.319,276.829 277.544,276.844 278.399,257.494C278.935,245.383 287.606,245.177 307.494,245.057C328.899,244.927 319.1,259.585 338.122,275.911C343.882,280.855 345.913,281.317 343.08,285.201C330.933,301.854 316.999,304.95 313.419,306.248Z" style="fill:rgb(146,221,252);"/>
        </g>
        <g transform="matrix(3.558782,0,0,2.670866,2033.795204,-241.27082)">
            <path d="M230.064,524.573C227.178,501.078 226.993,501.143 226.369,477.504C225.791,455.604 227.809,434.425 228.098,434.065C229.676,432.1 231.06,437.298 231.962,439.282C252.235,483.895 261.84,500.622 254.323,539.464C250.068,561.448 240.513,578.147 240.385,578.218C237.379,579.867 230.637,528.906 230.064,524.573Z" style="fill:rgb(146,220,251);"/>
        </g>
        <g transform="matrix(3.558782,0,0,2.670866,2033.795204,-241.27082)">
            <path d="M317.147,541.454C310.717,576.934 311.279,579.88 308.823,578.141C307.199,576.99 302.023,562.857 301.523,561.492C283.611,512.582 296.106,486.792 311.437,452.472C319.76,433.838 320.085,432.507 321.376,433.621C321.498,433.727 326.145,468.98 320.349,517.484C318.909,529.537 318.993,529.459 317.147,541.454Z" style="fill:rgb(145,219,251);"/>
        </g>
        <g transform="matrix(3.558782,0,0,2.670866,2033.795204,-241.27082)">
            <path d="M215.913,508.48C219.209,477.435 217.925,477.272 218.85,474.724C220.697,469.639 220.666,478.134 220.665,478.467C220.648,483.204 220.581,501.489 225.688,537.473C232.258,583.768 237.667,585.906 236.145,594.431C235.673,597.076 228.9,619.558 221.508,598.497C210.874,568.199 214.316,543.166 214.456,529.494C215.256,518.935 215.267,519.009 215.913,508.48Z" style="fill:rgb(145,218,250);"/>
        </g>
        <g transform="matrix(3.558782,0,0,2.670866,2033.795204,-241.27082)">
            <path d="M335.464,540.501C335.578,545.777 336.497,588.12 324.586,605.565C319.01,613.731 311.68,594.674 313.281,588.437C322.021,554.383 322.288,554.475 326.113,519.459C330.608,478.313 328.041,468.399 330.794,475.221C331.403,476.731 330.632,476.838 332.336,495.517C333.499,508.262 334.498,517.77 335.464,540.501Z" style="fill:rgb(144,217,249);"/>
        </g>
        <g transform="matrix(3.558782,0,0,2.670866,2033.795204,-241.27082)">
            <path d="M184.659,294.672C192.284,288.709 191.967,288.335 196.667,285.868C199.886,284.178 202.084,293.48 201.735,303.509C200.896,327.619 177.983,353.225 174.799,356.784C174.579,357.03 171.333,360.658 170.988,358.354C168.705,343.087 169.341,334.566 169.495,332.5C171.613,304.106 182.228,297.146 184.659,294.672Z" style="fill:rgb(145,220,252);"/>
        </g>
        <g transform="matrix(3.558782,0,0,2.670866,2033.795204,-241.27082)">
            <path d="M378.944,351.705L378.381,358.477L377.353,359.051C375.758,358.889 374.911,358.803 363.861,344.222C343.343,317.144 345.36,282.53 352.694,286.028C352.882,286.118 368.029,294.56 374.028,306.725C376.666,312.074 380.984,329.603 379.764,342.496C379.742,342.733 379.772,342.716 379.863,345.467L378.944,351.705Z" style="fill:rgb(145,220,251);"/>
        </g>
        <g transform="matrix(3.558782,0,0,2.670866,2033.795204,-241.27082)">
            <path d="M254.583,386.276C261.548,387.971 261.663,386.686 268.553,388.271C271.992,389.062 271.703,390.542 271.543,434.501C271.523,439.948 272.245,447.32 269.606,446.168C250.196,437.687 244.858,384.851 246.37,383.392C246.871,382.909 247.004,383.179 254.583,386.276Z" style="fill:rgb(144,220,251);"/>
        </g>
        <g transform="matrix(3.558782,0,0,2.670866,2033.795204,-241.27082)">
            <path d="M298.573,384.665C302.098,382.583 302.22,383.148 302.718,383.331C303.048,383.451 302.836,385.028 302.1,392.46C297.359,440.368 278.997,446.902 277.915,446.025C276.923,445.221 277.446,393.433 277.482,392.499C277.772,385.098 282.747,390.734 298.573,384.665Z" style="fill:rgb(145,220,251);"/>
        </g>
        <g transform="matrix(3.558782,0,0,2.670866,2033.795204,-241.27082)">
            <path d="M314.325,666.488C315.862,647.943 316.185,646.633 318.034,637.409C318.253,636.313 320.717,624.019 321.779,623.945C323.089,623.854 324.102,628.216 325.066,631.618C335.65,668.976 321.06,680.506 316.741,728.528C314.844,749.62 316.592,776.383 313.978,755.342C309.952,722.946 313.776,673.575 314.325,666.488Z" style="fill:rgb(144,218,249);"/>
        </g>
        <g transform="matrix(3.558782,0,0,2.216591,2033.795204,42.186237)">
            <path d="M226.88,623.977C227.139,624.443 228.089,624.149 228.348,624.616C230.63,628.72 233.034,645.674 233.297,647.531C239.225,689.332 237.375,726.595 237.034,733.468C236.953,735.091 234.241,843.721 232.074,753.938C231.032,710.797 222.327,677.26 220.842,664.465C218.934,648.025 225.609,626.873 226.88,623.977Z" style="fill:rgb(144,217,248);"/>
        </g>
        <g transform="matrix(3.558782,0,0,2.670866,2033.795204,-241.27082)">
            <path d="M110.466,430.239C109.99,430.499 109.976,431.288 109.5,431.547C105.969,433.475 109.178,429.547 109.287,429.415C144.643,396.516 128.086,383.886 157.65,356.664C160.405,354.127 166.529,348.24 167.078,351.638C169.798,368.464 164.648,373.253 158.959,381.806C142.008,407.292 111.477,429.622 110.466,430.239Z" style="fill:rgb(144,219,250);"/>
        </g>
        <g transform="matrix(3.558782,0,0,2.670866,2033.795204,-241.27082)">
            <path d="M119.553,435.907C117.691,437.01 117.329,437.471 117.432,436.894C117.805,434.796 118.403,435.204 118.759,434.585C134.39,417.112 152.507,403.943 169.968,368.768C170.819,367.055 175.346,357.934 187.506,352.516C192.455,350.31 189.99,368.532 179.087,383.209C170.579,394.662 153.599,408.457 150.343,411.312C149.65,411.92 119.846,435.693 119.553,435.907Z" style="fill:rgb(144,218,249);"/>
        </g>
        <g transform="matrix(3.558782,0,0,2.670866,2033.795204,-241.27082)">
            <path d="M381.433,360.481L381.673,354.483L381.984,351.593C381.605,349.378 381.429,349.333 381.576,349.207C381.831,348.986 382.206,349.919 382.462,349.698L383.325,349.848C390.769,355.802 390.589,355.922 397.507,362.492C419.59,388.583 409.419,401.42 438.221,427.759C446.029,434.9 435.776,428.465 435.606,428.334C404.176,404.006 387.566,377.782 384.326,372.666C381.493,366.893 381.483,366.863 381.433,360.481Z" style="fill:rgb(144,218,249);"/>
        </g>
        <g transform="matrix(3.558782,0,0,2.670866,2033.795204,-241.27082)">
            <path d="M270.146,474.442L270.061,475.405C269.467,478.11 269.687,478.129 264.913,509.629C264.874,509.884 262.266,524.209 262.313,511.535C262.419,482.351 241.855,442.991 234.331,433.579C223.385,419.887 249.187,443.661 251.899,446.043C271.965,463.672 270.196,465.613 269.928,472.496C269.922,472.653 269.944,472.641 270.146,474.442Z" style="fill:rgb(144,218,249);"/>
        </g>
        <g transform="matrix(3.558782,0,0,2.670866,2033.795204,-241.27082)">
            <path d="M279.337,466.489C281.262,458.329 303.5,441.757 315.386,430.202C317.452,428.194 317.47,430.742 317.065,431.312C313.317,436.583 289.952,469.448 287.283,506.471C287.161,508.155 287.488,515.877 287.027,516.068C286.67,516.216 285.917,516.057 285.823,516.037C285.208,515.907 282.679,498.997 282.456,497.507C280.117,481.86 279.811,480.581 279.337,466.489Z" style="fill:rgb(145,217,248);"/>
        </g>
        <g transform="matrix(3.558782,0,0,2.670866,2033.795204,-241.27082)">
            <path d="M288.227,524.737C296.616,580.617 305.885,578.171 307.168,590.544C308.456,602.96 299.36,619.619 291.945,600.33C285.799,584.344 286.443,549.907 286.526,545.5C286.881,526.483 285.352,524.719 288.227,524.737Z" style="fill:rgb(144,218,248);"/>
        </g>
        <g transform="matrix(3.558782,0,0,2.670866,2033.795204,-241.27082)">
            <path d="M263.123,553.525C263.076,558.095 262.559,608.488 250.509,609.241C249.815,609.284 234.894,600.799 246.318,580.396C251.756,570.684 258.755,547.028 260.668,527.547C261.044,523.715 262.578,525.151 262.646,525.376C262.837,526.005 263.154,549.741 263.123,553.525Z" style="fill:rgb(145,218,249);"/>
        </g>
        <g transform="matrix(3.558782,0,0,2.670866,2033.795204,-241.27082)">
            <path d="M361.374,366.533C361.107,365.514 358.892,357.046 359.484,353.496C360.103,349.786 369.543,357.123 370.751,358.29L374.797,362.06C376.309,363.735 376.155,363.736 377.4,365.521L380.902,372.167L382.623,375.462C389.898,387.954 389.791,389.016 402.118,403.807C421.05,426.523 431.347,434.608 431.775,435.5C433.493,439.083 429.539,435.956 429.388,435.836C384.188,400.087 375.62,389.909 371.665,385.21L369.613,382.467C364.893,374.727 364.281,375.083 361.374,366.533Z" style="fill:rgb(143,217,246);"/>
        </g>
        <g transform="matrix(3.558782,0,0,2.670866,2033.795204,-241.27082)">
            <path d="M301.716,686.479C305.328,718.984 304.418,718.985 309.043,751.46C309.066,751.618 308.122,757.454 307.094,751.895C301.23,720.185 284.24,684.209 291.545,648.509C294.212,635.479 293.624,635.216 294.552,634.55C297.086,632.732 295.943,635.784 297.648,650.482C299.739,668.513 299.815,668.397 301.716,686.479Z" style="fill:rgb(144,217,248);"/>
        </g>
        <g transform="matrix(3.558782,0,0,2.670866,2033.795204,-241.27082)">
            <path d="M244.415,718.492C245.023,713.707 244.409,713.664 250.882,658.55C253.579,635.588 252.605,634.106 254.53,634.428C255.689,634.623 255.15,635.192 256.277,640.553C262.933,672.218 260.816,676.916 250.209,720.438C249.553,723.127 242.021,754.032 242.008,754.045C239.26,756.817 241.033,752.247 244.415,718.492Z" style="fill:rgb(144,217,247);"/>
        </g>
        <g transform="matrix(3.558782,0,0,2.670866,2033.795204,-241.27082)">
            <path d="M237.615,426.372C230.159,419.157 228.908,416.67 229.142,401.499C229.678,366.627 224.472,360.72 229.423,363.644C239.572,369.639 238.925,385.685 239.291,389.52C242.512,423.23 246.076,429.963 245.943,430.707C245.472,433.346 238.098,426.734 237.615,426.372Z" style="fill:rgb(144,218,249);"/>
        </g>
        <g transform="matrix(3.558782,0,0,2.670866,2033.795204,-241.27082)">
            <path d="M320.234,405.498C319.982,407.119 319.525,411.515 319.354,413.471C319.299,413.767 319.557,421.334 308.196,429.047C306.468,430.22 301.598,434.192 303.801,428.579C307.623,418.837 310.841,378.889 311.475,375.495C312.882,367.957 320.405,363.298 320.459,363.291C325.521,362.599 318.535,366.751 320.234,405.498Z" style="fill:rgb(144,218,249);"/>
        </g>
        <g transform="matrix(3.558782,0,0,2.670866,2033.795204,-241.27082)">
            <path d="M453.458,463.624C451.751,462.706 451.636,462.965 448.559,460.43C431.699,446.537 446.743,436.009 453.506,435.605C461.024,435.157 474.158,451.432 471.773,456.638C471.464,457.312 463.458,465.408 453.458,463.624Z" style="fill:rgb(146,220,250);"/>
        </g>
        <g transform="matrix(3.558782,0,0,2.670866,2033.795204,-241.27082)">
            <path d="M92.634,435.984C93.167,435.905 98.43,433.469 106.259,441.718C113.284,449.12 102.425,460.094 97.228,463.027C90.864,466.617 74.036,458.713 77.337,452.427C83.015,441.616 91.084,436.892 92.634,435.984Z" style="fill:rgb(145,220,251);"/>
        </g>
        <g transform="matrix(3.558782,0,0,2.670866,2033.795204,-241.27082)">
            <path d="M332.504,244.496C347.466,259.432 351.326,265.347 361.394,285.537C364.492,291.749 357.905,285.676 352.774,282.13C334.862,269.753 329.296,258.815 327.997,256.261C327.272,254.837 325.515,249.76 326.5,245.5C328.108,238.541 331.033,243.196 332.504,244.496Z" style="fill:rgb(144,219,249);"/>
        </g>
        <g transform="matrix(3.558782,0,0,2.670866,2033.795204,-241.27082)">
            <path d="M199.57,279.586C188.428,288.521 187.418,288.764 187.211,287.604C186.283,282.406 217.951,236.254 221.573,242.437C227.753,252.987 213.911,266.798 212.353,268.352C206.285,274.407 206.204,274.207 199.57,279.586Z" style="fill:rgb(144,219,250);"/>
        </g>
        <g transform="matrix(3.558782,0,0,2.670866,2033.795204,-241.27082)">
            <path d="M251.423,360.118C252.223,359.989 266.756,356.994 269.339,359.642C270.885,361.228 270.786,380.029 270.612,380.551C269.858,382.826 249.579,383.471 244.964,371.325C240.669,360.019 250.804,360.275 251.423,360.118Z" style="fill:rgb(145,219,252);"/>
        </g>
        <g transform="matrix(3.558782,0,0,2.670866,2033.795204,-241.27082)">
            <path d="M300.431,360.775C310.189,363.59 304.756,380.671 286.514,381.677C280.716,381.997 278.112,383.347 278.237,377.494C278.594,360.852 279.037,360.323 279.68,359.657C281.861,357.397 298.795,360.478 300.431,360.775Z" style="fill:rgb(145,220,251);"/>
        </g>
        <g transform="matrix(3.558782,0,0,2.670866,2033.795204,-241.27082)">
            <path d="M260.535,352.843C252.4,354.163 252.558,354.661 244.454,356.21C241.661,356.744 239.914,343.795 245.745,339.859C253.248,334.793 269.882,326.53 270.171,341.512C270.228,344.499 270.721,352.328 268.499,352.494C267.863,352.541 267.909,352.52 260.535,352.843Z" style="fill:rgb(144,219,250);"/>
        </g>
        <g transform="matrix(3.558782,0,0,2.670866,2033.795204,-241.27082)">
            <path d="M289.45,352.917C285.463,352.739 285.536,352.654 281.498,352.562C277.905,352.481 278.759,346.325 278.857,340.518C279.112,325.413 303.377,337.06 306.286,343.588C307.434,346.164 306.464,355.003 306.293,355.408C305.764,356.664 305.277,356.108 289.45,352.917Z" style="fill:rgb(145,219,250);"/>
        </g>
        <g transform="matrix(3.558782,0,0,2.670866,2033.795204,-241.27082)">
            <path d="M289.424,312.854C290.119,313.07 303.368,313.286 307.18,333.483C307.987,337.762 297.214,326.733 283.5,326.639C283.36,326.638 277.52,329.308 278.931,318.558C280.02,310.261 286.265,312.554 289.424,312.854Z" style="fill:rgb(144,218,249);"/>
        </g>
        <g transform="matrix(3.558782,0,0,2.670866,2033.795204,-241.27082)">
            <path d="M260.531,312.678C264.018,312.428 270.242,310.512 270.192,321.496C270.165,327.547 267.977,326.556 264.507,326.668C251.483,327.09 241.084,337.702 241.845,333.479C245.501,313.207 258.703,313.158 260.531,312.678Z" style="fill:rgb(144,219,250);"/>
        </g>
        <g transform="matrix(3.558782,0,0,2.670866,2033.795204,-241.27082)">
            <path d="M302.479,241.068C289.961,241.894 284.991,242.675 286.852,239.677C295.767,225.318 296.089,225.075 297.507,225.281C300.741,225.75 313.048,231.575 321.265,237.8C327.339,242.402 319.019,240.308 302.479,241.068Z" style="fill:rgb(145,219,249);"/>
        </g>
        <g transform="matrix(3.558782,0,0,2.670866,2033.795204,-241.27082)">
            <path d="M246.525,241.046C237.441,240.857 237.539,240.91 228.508,241.119C219.583,241.326 241.51,228.14 251.475,225.33C253.848,224.661 256.678,230.779 261.989,239.248C264.495,243.244 257.475,241.657 246.525,241.046Z" style="fill:rgb(145,219,250);"/>
        </g>
        <g transform="matrix(3.558782,0,0,2.670866,2033.795204,-241.27082)">
            <path d="M320.464,798.435C320.926,798.206 325.199,796.08 326.537,796.256C328.621,796.529 327.93,797.387 329.489,801.504C331.857,807.755 335.281,807.411 337.111,810.686C339.814,815.522 316.396,815.96 314.637,811.441C310.531,800.889 315.536,801.239 320.464,798.435Z" style="fill:rgb(144,218,249);"/>
        </g>
        <g transform="matrix(3.558782,0,0,2.670866,2033.795204,-241.27082)">
            <path d="M221.058,798.34C222.245,795.752 222.784,795.636 225.43,796.696C237.119,801.379 236.701,804.383 236.545,805.506C235.531,812.793 234.831,813.796 227.478,814.228C218.358,814.765 206.661,814.472 215.561,807.584C219.983,804.162 219.208,803.564 221.058,798.34Z" style="fill:rgb(148,220,248);"/>
        </g>
        <g transform="matrix(3.558782,0,0,2.670866,2033.795204,-241.27082)">
            <path d="M187.462,280.396L186.648,281.318C186.521,280.826 185.097,263.746 191.976,253.857C195.051,249.436 203.851,243.797 205.431,243.337C214.885,240.584 214.62,239.79 215.471,239.739C220.869,239.414 210.362,242.253 198.13,260.25C188.391,274.578 189.818,276.847 187.462,280.396Z" style="fill:rgb(146,218,246);"/>
        </g>
        <g transform="matrix(3.558782,0,0,2.670866,2033.795204,-241.27082)">
            <path d="M362.558,280.592C358.73,277.688 361.298,275.969 352.998,263.169C341.994,246.199 336.017,243.657 332.976,241.168C332.36,240.664 332.811,239.275 334.446,239.884C347.354,244.692 351.947,247.621 356.294,252.669C363.38,260.898 363.18,278.16 362.558,280.592Z" style="fill:rgb(143,217,247);"/>
        </g>
        <g transform="matrix(3.558782,0,0,2.670866,2033.795204,-241.27082)">
            <path d="M342.405,292.156L343.654,292.401C333.869,337.854 328.274,341.264 328.61,337.477C328.772,335.654 331.028,329.699 330.872,319.488C330.778,313.319 327.723,309.083 332.95,302.872C337.587,297.361 337.899,297.729 342.405,292.156Z" style="fill:rgb(143,216,246);"/>
        </g>
        <g transform="matrix(3.558782,0,0,2.670866,2033.795204,-241.27082)">
            <path d="M217.489,304.508C222.394,312.306 215.342,316.342 219.958,334.481C220.011,334.687 221.479,344.493 217.946,336.22C210.363,318.46 205.027,292.298 205.868,291.978C207.488,291.364 216.661,303.42 217.489,304.508Z" style="fill:rgb(143,217,248);"/>
        </g>
        <g transform="matrix(3.558782,0,0,2.670866,2033.795204,-241.27082)">
            <path d="M234.496,779.505C241.155,785.415 247.331,789.143 246.415,798.481C245.975,802.966 238.673,796.767 229.315,792.928C224.78,791.068 225.791,789.749 227.331,786.426C228.629,783.624 229.702,778.586 230.09,778.124C231.921,775.949 232.14,777.95 234.496,779.505Z" style="fill:rgb(145,220,248);"/>
        </g>
        <g transform="matrix(3.558782,0,0,2.670866,2033.795204,-241.27082)">
            <path d="M318.588,793.698C304.908,800.069 303.783,802.054 303.281,799.611C302.196,794.33 302.686,789.264 315.782,778.898C320.937,774.817 319.639,780.293 322.287,786.587C323.723,789.998 323.857,789.951 323.765,790.556C323.558,791.929 323.097,791.536 318.588,793.698Z" style="fill:rgb(144,219,249);"/>
        </g>
        <g transform="matrix(3.558782,0,0,2.670866,2033.795204,-241.27082)">
            <path d="M243.269,670.35C237.956,670.252 244.509,666.619 243.34,631.503C243.006,621.457 261.279,605.38 255.337,615.439C252.104,620.912 252.079,620.997 243.269,670.35Z" style="fill:rgb(142,209,241);"/>
        </g>
        <g transform="matrix(3.558782,0,0,2.670866,2033.795204,-241.27082)">
            <path d="M293.767,612.89C293.896,612.899 294.334,612.134 295.188,612.98C311.18,628.834 304.035,632.145 306.938,659.494C307.014,660.206 310.005,688.386 305.835,668.373C301.36,646.894 300.953,627.28 293.219,613.477L293.767,612.89Z" style="fill:rgb(141,210,242);"/>
        </g>
        <g transform="matrix(3.558782,0,0,2.670866,2033.795204,-241.27082)">
            <path d="M192.367,346.307C191.964,346.55 184.032,351.342 186.623,347.544C189.83,342.84 190.189,343.18 193.296,338.374C202.85,323.595 203.872,308.039 204.521,307.599C206.666,306.146 206.665,324.72 204.552,330.516C200.956,340.374 195.585,343.753 192.367,346.307Z" style="fill:rgb(143,214,245);"/>
        </g>
        <g transform="matrix(3.558782,0,0,2.670866,2033.795204,-241.27082)">
            <path d="M343.209,318.498C343.443,310.155 343.415,310.208 343.462,309.488C343.654,306.522 345.233,307.8 345.338,308.577C345.767,311.736 348.458,331.582 360.712,345.349C368.172,353.731 356.025,346.269 352.867,343.1C342.71,332.907 343.491,324.817 343.209,318.498Z" style="fill:rgb(142,215,244);"/>
        </g>
        <g transform="matrix(3.558782,0,0,2.670866,2033.795204,-241.27082)">
            <path d="M233.434,609.131C239.511,608.684 249.08,606.845 243.736,617.617C237.084,631.026 233.074,620.955 232.774,620.364C228.018,611.016 230.435,610.019 233.434,609.131Z" style="fill:rgb(144,218,249);"/>
        </g>
        <g transform="matrix(3.558782,0,0,2.670866,2033.795204,-241.27082)">
            <path d="M314.453,608.928C315.64,609.067 324.132,608.408 315.544,622.528C310.71,630.475 299.811,611.451 306.468,609.417C309.962,608.35 313.118,608.891 314.453,608.928Z" style="fill:rgb(145,219,249);"/>
        </g>
        <g transform="matrix(3.558782,0,0,2.670866,2033.795204,-241.27082)">
            <path d="M276.986,244.414C287.878,221.309 281.61,218.029 287.807,213.937C288.122,213.73 292.627,210.756 292.503,213.5C291.678,231.769 278.446,245.047 278.318,245.032C278.201,245.018 278.219,244.986 276.986,244.414Z" style="fill:rgb(144,215,246);"/>
        </g>
        <g transform="matrix(3.558782,0,0,2.670866,2033.795204,-241.27082)">
            <path d="M270.499,244.503C257.07,230.28 254.699,210.647 258.563,212.27C267.986,216.229 261.462,220.824 271.807,243.565C271.696,244.026 272.203,243.874 272.083,244.37C272.053,244.493 271.971,244.379 270.499,244.503Z" style="fill:rgb(143,216,246);"/>
        </g>
        <g transform="matrix(3.558782,0,0,2.670866,2033.795204,-241.27082)">
            <path d="M272.513,215.84C274.167,215.89 275.823,215.805 277.477,215.854C283.136,216.024 280.39,221.49 275.695,236.629C275.299,237.906 273.941,238.043 273.478,236.513C273.171,235.501 272.905,234.478 272.591,233.468C268.625,220.712 265.547,217.184 272.513,215.84Z" style="fill:rgb(143,217,248);"/>
        </g>
        <g transform="matrix(3.558782,0,0,2.670866,2033.795204,-241.27082)">
            <path d="M235.627,765.054C239.154,766.021 245.639,765.883 245.779,771.494C246.041,781.998 245.273,782.116 244.416,782.248C244.089,782.298 233.055,773.308 232.142,770.626C230.017,764.377 235.105,764.991 235.627,765.054Z" style="fill:rgb(144,218,249);"/>
        </g>
        <g transform="matrix(3.558782,0,0,2.670866,2033.795204,-241.27082)">
            <path d="M313.415,765.213C321.139,763.54 316.745,771.942 316.371,772.397C315.587,773.35 306.601,781.395 306.478,781.462C303.263,783.204 303.808,775.065 303.796,774.494C303.593,765.31 307.33,766.799 313.415,765.213Z" style="fill:rgb(144,217,247);"/>
        </g>
        <g transform="matrix(3.558782,0,0,2.670866,2033.795204,-241.27082)">
            <path d="M232.423,312.9C233.059,313.032 241.438,314.771 237.938,318.854C233.089,324.512 219.894,311.001 224.477,310.413C225.138,310.328 224.942,311.119 232.423,312.9Z" style="fill:rgb(145,218,245);"/>
        </g>
        <g transform="matrix(3.558782,0,0,2.670866,2033.795204,-241.27082)">
            <path d="M317.568,312.796C323.971,310.95 326.502,309.625 325.203,312.412C320.053,323.464 308.329,320.524 310.942,315.69C312.783,312.283 313.751,313.7 317.568,312.796Z" style="fill:rgb(144,217,245);"/>
        </g>
        <g transform="matrix(3.558782,0,0,2.670866,2033.795204,-241.27082)">
            <path d="M472.713,476.283C463.817,466.956 462.479,466.678 463.758,465.742C466.132,464.004 466.649,464.16 468.606,466.405C470.524,468.605 492.983,491.626 472.713,476.283Z" style="fill:rgb(148,221,246);"/>
        </g>
        <g transform="matrix(3.558782,0,0,2.670866,2033.795204,-241.27082)">
            <path d="M78.496,462.504C78.688,464.131 79.178,464.231 78.235,465.315C75.255,468.741 60.217,486.325 62.793,478.658C63.502,476.548 63.852,476.779 71.571,467.558C74.664,463.864 73.785,461.54 78.496,462.504Z" style="fill:rgb(144,218,247);"/>
        </g>
        <g transform="matrix(3.558782,0,0,2.670866,2033.795204,-241.27082)">
            <path d="M471.334,462.158C473.714,462.591 473.936,462.563 478.493,468.506C479.106,469.306 486.603,477.036 486.491,479.496C486.414,481.186 484.442,480.769 470.883,465.218C469.625,463.776 470.03,463.525 471.334,462.158Z" style="fill:rgb(144,218,248);"/>
        </g>
        <g transform="matrix(3.558782,0,0,2.670866,2033.795204,-241.27082)">
            <path d="M76.39,476.39C74.489,477.817 69.051,482.922 68.657,480.468C68.417,478.971 69.139,479.243 80.86,465.972C83.196,463.327 85.147,465.362 85.399,465.625C86.469,466.742 83.714,468.995 76.39,476.39Z" style="fill:rgb(141,220,248);"/>
        </g>
        <g transform="matrix(3.558782,0,0,2.670866,2033.795204,-241.27082)">
            <path d="M315.496,332.6C315.092,332.514 311.328,331.712 312.406,328.464C313.023,326.603 318.839,325.395 319.444,325.269C321.037,324.938 328.447,321.124 325.16,326.319C322.069,331.203 319.561,332.243 315.496,332.6Z" style="fill:rgb(144,218,245);"/>
        </g>
        <g transform="matrix(3.558782,0,0,2.670866,2033.795204,-241.27082)">
            <path d="M227.475,324.568C233.355,326.097 238.038,326.426 236.867,330.624C234.407,339.446 214.214,319.009 227.475,324.568Z" style="fill:rgb(146,218,245);"/>
        </g>
        <g transform="matrix(3.558782,0,0,2.670866,2033.795204,-241.27082)">
            <path d="M310.305,809.538C311.13,814.888 309.641,816.239 304.471,814.582C303.433,814.249 301.115,813.375 303.497,806.499C304.051,804.902 306.396,803.661 307.495,803.668C309.798,803.682 310.227,809.205 310.305,809.538Z" style="fill:rgb(146,218,249);"/>
        </g>
        <g transform="matrix(3.558782,0,0,2.670866,2033.795204,-241.27082)">
            <path d="M441.638,434.177C442.07,434.374 445.966,434.922 443.326,437.328C440.341,440.048 439.001,442.107 437.484,440.516C436.781,439.779 437.442,439.339 429.837,430.321C429.048,429.385 429.977,428.031 431.324,428.891C436.296,432.066 436.333,431.813 441.638,434.177Z" style="fill:rgb(153,217,244);"/>
        </g>
        <g transform="matrix(3.558782,0,0,2.670866,2033.795204,-241.27082)">
            <path d="M113.356,438.397C110.062,443.02 109.057,440.23 107.412,438.594C105.193,436.388 104.148,436.427 105.168,435.259C105.886,434.437 106.402,435.355 117.474,429.376C122.184,426.832 116.774,432.922 113.356,438.397Z" style="fill:rgb(142,217,244);"/>
        </g>
        <g transform="matrix(3.558782,0,0,2.670866,2033.795204,-241.27082)">
            <path d="M244.46,804.554C252.988,815.379 239.237,817.301 238.778,812.486C238.676,811.412 240.107,804.95 240.493,804.495C241.973,802.746 242.312,803.592 244.46,804.554Z" style="fill:rgb(142,218,246);"/>
        </g>
        <g transform="matrix(3.558782,0,0,2.670866,2033.795204,-241.27082)">
            <path d="M317.561,338.81C324.148,336.874 323.928,336.437 324.5,336.289C326.397,335.798 325.449,342.433 318.374,345.073C313.71,346.813 309.909,340.875 317.561,338.81Z" style="fill:rgb(145,216,245);"/>
        </g>
        <g transform="matrix(3.558782,0,0,2.670866,2033.795204,-241.27082)">
            <path d="M231.454,338.705C239.058,340.691 236.21,346.201 231.555,345.234C225.876,344.054 219.118,333.724 227.491,337.523C228.245,337.865 228.212,337.797 231.454,338.705Z" style="fill:rgb(145,215,243);"/>
        </g>
        <g transform="matrix(3.558782,0,0,2.670866,2033.795204,-241.27082)">
            <path d="M90.039,433.699C83.142,440.483 58.6,441.39 64.736,437.733C65.976,436.994 66.336,438.824 82.501,434.504C87.911,433.058 89.259,433.553 90.039,433.699Z" style="fill:rgb(142,219,245);"/>
        </g>
        <g transform="matrix(3.558782,0,0,2.670866,2033.795204,-241.27082)">
            <path d="M467.352,437.875C460.827,435.287 460.547,435.086 460.029,434.714C456.065,431.865 465.12,434.103 465.551,434.21C483.796,438.719 485.066,436.913 485.163,438.517C485.352,441.673 468.747,438.169 467.352,437.875Z" style="fill:rgb(144,218,245);"/>
        </g>
        <g transform="matrix(3.558782,0,0,2.670866,2033.795204,-241.27082)">
            <path d="M73.845,458.196C75.009,461.913 62.235,474.644 61.553,474.338C60.115,473.694 63.967,467.883 64.298,467.384C70.794,457.585 72.113,457.388 73.845,458.196Z" style="fill:rgb(142,218,244);"/>
        </g>
        <g transform="matrix(3.558782,0,0,2.670866,2033.795204,-241.27082)">
            <path d="M475.32,458.376C476.881,457.336 477.673,457.409 483.152,464.763C489.481,473.258 488.327,474.276 487.491,474.405C487.413,474.418 475.524,463.84 475.32,458.376Z" style="fill:rgb(142,218,245);"/>
        </g>
        <g transform="matrix(3.558782,0,0,2.670866,2033.795204,-241.27082)">
            <path d="M230.455,351.672C234.05,352.716 235.879,351.776 235.346,355.476C234.276,362.903 221.555,351.715 225.55,349.668C225.928,349.475 225.809,349.961 230.455,351.672Z" style="fill:rgb(142,216,244);"/>
        </g>
        <g transform="matrix(3.558782,0,0,2.670866,2033.795204,-241.27082)">
            <path d="M316.437,357.77C310.986,355.427 315.202,352.548 316.432,352.229C322.762,350.584 325.249,348.415 324.147,351.425C321.885,357.6 317.235,357.745 316.437,357.77Z" style="fill:rgb(143,215,244);"/>
        </g>
        <g transform="matrix(3.558782,0,0,2.670866,2033.795204,-241.27082)">
            <path d="M90.493,467.554C94.763,468.171 91.36,470.324 85.824,474.901C85.399,475.253 79.33,480.271 79.425,477.495C79.448,476.826 79.606,476.972 85.291,471.29C87.651,468.93 87.194,468.118 90.493,467.554Z" style="fill:rgb(147,219,246);"/>
        </g>
        <g transform="matrix(3.558782,0,0,2.670866,2033.795204,-241.27082)">
            <path d="M469.36,478.408C464.277,477.027 454.94,468.321 457.57,467.694C460.49,466.998 462.387,469.554 468.418,475.567C470.415,477.558 469.349,477.884 469.36,478.408Z" style="fill:rgb(141,219,242);"/>
        </g>
        <g transform="matrix(3.558782,0,0,2.670866,2033.795204,-241.27082)">
            <path d="M244.591,672.103C246.001,673.162 245.96,673.707 244.485,674.543C244.065,674.781 243.067,673.902 243.276,673.405C243.515,672.836 244.352,672.672 244.591,672.103Z" style="fill:rgb(63,59,125);"/>
        </g>
    </g>
</svg>
