<svg xmlns="http://www.w3.org/2000/svg" xml:space="preserve" style="fill-rule:evenodd;clip-rule:evenodd;stroke-linejoin:round;stroke-miterlimit:2" viewBox="0 0 1501 2000">
    <path d="M2050 0h2000v2000H2050z" style="fill:none" transform="matrix(.7505 0 0 1 -1538.525 0)"/>
    <path d="m209.19 503.447.265-1.947c7.075-81.057 17.45-80.137 14.752-115.978-2.823-37.503-4.521-37.293-6.092-39.778-4.339-6.861-4.133-6.865-7.968-14.043-2.211-4.137-1.431 1.837-10.194 13.151-10.438 13.477-3.741 33.65-41.038 64.13-3.971 3.245-42.652 36.833-44.293 38.637-6.372 7.005-2.822 10.122-15.774 19.373-8.927 6.376-15.156 16.276-21.562 12.894-3.611-1.906-3.379 6.39-10.73 2.523-1.074-.565-6.771 1.56-6.296-2.949.244-2.318-.284-2.152-1.476-4.103-3.683-6.03 27.206-35.8 19.61-34.39-1.38.256-20.089 3.728-17.168-3.591 1.857-4.654 4.413-.063 20.167-5.222 12.528-4.102 15.246 3.824 23.967-4.802 37.413-37.006 24.965-55.927 53.859-79.216 12.065-9.725-2.271-21.356 19.993-55.813 7.203-11.148-3.403-39.124 20.212-49.989 16.22-7.463 17.739-3.513 33.358-12.341 14.906-8.426 20.748-4.453 20.696-15.493-.042-8.993-.182-9.041-3.245-15.916-2.582-5.796-1.201-6.807-4.51-8.548-1.602-.844-6.659-3.507-6.967-21.535-.068-4.009 3.54-3.182 3.463-5.018-.409-9.719-4.138-28.035 12.519-42.682 8.912-7.835 55.362-16.949 52.749 37.698-.221 4.61-1.462 5.27.714 6.488 1.353.757 4.219 2.361-.171 19.379-1.517 5.88-5.489 3.437-7.014 9.021-2.358 8.634-4.799 7.951-5.093 16.127-.289 8.025-1.138 11.432 4.423 13.412 16.964 6.04 15.563 9.595 33.081 13.859 45.014 10.954 27.44 33.599 35.816 53.828 4.283 10.345 11.586 11.103 15.286 44.885.216 3.13-.02 3.061.754 6.058l.601 1.622c2.676 4.035 3.056 3.659 10.474 10.471 1.958 2.076 1.911 2.024 3.668 4.214 19.69 26.774 13.92 40.372 43.718 69.384 8.794 8.562 11.253 1.23 23.623 4.686 8.492 2.372 8.377 2.597 17.144 3.361 4.771.416 5.814 7.278-4.009 7.087-5.567-.109-12.289-2.627-10.879.072 4.079 7.811 26.28 29.904 19.853 34.018-2.179 1.395 1.155 6.729-3.976 6.03-4.571-.622-5.027 2.474-8.814-.253-2.82-2.031-2.904-2.723-6.152-1.57-2.078.737-2.717.964-22.753-15.563-10.741-8.86-7.054-12.099-17.444-21.432-34.797-31.256-44.977-36.275-59.485-54.463-8.143-11.578-8.369-11.433-13.403-24.702-4.545-14.627-4.884-14.476-10.381-22.729-5.917-8.885-6.156-13.698-8.034-9.64-7.177 15.503-11.051 14.328-12.145 31.372-1.383 21.574-2.778 24.825-2.34 37.974.277 3.052.369 2.968.638 6.05.19 1.036 1.639 8.916 2.282 12.965 1.745 6.851 1.746 6.845 1.79 7.043 26.289 128.84 1.178 172.815-.417 181-2.398 12.301.886 25.824 1.415 28.004 8.655 35.64-8.288 43.227-9.625 125.944-.124 7.682 2.422 7.352 2.29 15.027-.109 6.338 5.244 11.334 7.244 16.119 2.986 7.147 3.072 7.14 8.787 12.372.414.378 3.314 3.034 2.634 6.498-.548 2.786-6.51 4.387-7.166 4.563-12.538.658-12.534-.957-24.896.698-4.755.637-4.784.251-8.925-2.344-4.982-9.456 2.354-14.077-.347-36.908-1.652-13.965 5.022-24.257-2.954-50.947-23.545-78.793-1.744-81.07-7-103.036-12.891-53.882-4.109-75.243-11.284-115.96-4.627-26.254-1.247-33.786-5.394-28.983-1.631 1.889 1.374 2.574-3.731 30.971-4.926 27.394-.502 71.658-9.829 109.809-6.107 24.98 7.089 28.929 2.046 63.064-6.699 45.344-17.532 48.469-13.005 86.111 1.501 12.478-1.755 12.491 0 24.998 2.413 17.197.01 20.216-1.066 21.568-7.177 3.595-7.57.851-13.53.975-9.987.208-9.883.401-19.938-.075-.784-.205-7.703-.949-6.999-6.511.634-5.004 7.048-5.932 9.631-12.147 3.291-7.915 4.232-7.337 7.846-15.082 2.483-5.321.287-7.297 1.84-11.643 1.485-4.157 3.794-10.62-1.145-55.165-5.483-49.459-14.573-49.683-5.571-84.056 3.811-14.551-2.057-32.181-2.94-34.834-9.586-28.798-9.336-55.152-9.417-60.056-.013-6.387-.619-6.468 1.377-34.08m5.266 26.047c-.14 13.672-3.582 38.705 7.052 69.003 7.392 21.061 14.165-1.421 14.637-4.066 1.522-8.525-3.887-10.663-10.457-56.958-5.107-35.984-5.04-54.269-5.023-59.006.001-.333.032-8.828-1.815-3.743-.925 2.548.359 2.711-2.937 33.756-.646 10.529-.657 10.455-1.457 21.014" style="fill:#3c3e7c" transform="translate(-12.162 -241.27)scale(2.67087)"/>
    <path d="M237.471 245.093c6.631-.196 8.332-.025 9.052.047 9.082.913 22.697-2.372 24.223 11.333 3.002 26.959-1.079 38.868-2.172 42.055-6.263 18.276-48.809 10.452-63.674-15.231-1.339-2.312 6.049-7.104 6.211-7.242 16.855-14.275 11.282-28.843 26.36-30.962m75.948 61.155c-31.512 7.235-34.619-3.661-36.003-27.738-.097-1.681.128-1.666.983-21.016.536-12.111 9.207-12.317 29.095-12.437 21.405-.13 11.606 14.528 30.628 30.854 5.76 4.944 7.791 5.406 4.958 9.29-12.147 16.653-26.081 19.749-29.661 21.047" style="fill:#92ddfc" transform="translate(-12.162 -241.27)scale(2.67087)"/>
    <path d="M230.064 524.573c-2.886-23.495-3.071-23.43-3.695-47.069-.578-21.9 1.44-43.079 1.729-43.439 1.578-1.965 2.962 3.233 3.864 5.217 20.273 44.613 29.878 61.34 22.361 100.182-4.255 21.984-13.81 38.683-13.938 38.754-3.006 1.649-9.748-49.312-10.321-53.645" style="fill:#92dcfb" transform="translate(-12.162 -241.27)scale(2.67087)"/>
    <path d="M317.147 541.454c-6.43 35.48-5.868 38.426-8.324 36.687-1.624-1.151-6.8-15.284-7.3-16.649-17.912-48.91-5.417-74.7 9.914-109.02 8.323-18.634 8.648-19.965 9.939-18.851.122.106 4.769 35.359-1.027 83.863-1.44 12.053-1.356 11.975-3.202 23.97" style="fill:#91dbfb" transform="translate(-12.162 -241.27)scale(2.67087)"/>
    <path d="M215.913 508.48c3.296-31.045 2.012-31.208 2.937-33.756 1.847-5.085 1.816 3.41 1.815 3.743-.017 4.737-.084 23.022 5.023 59.006 6.57 46.295 11.979 48.433 10.457 56.958-.472 2.645-7.245 25.127-14.637 4.066-10.634-30.298-7.192-55.331-7.052-69.003.8-10.559.811-10.485 1.457-21.014" style="fill:#91dafa" transform="translate(-12.162 -241.27)scale(2.67087)"/>
    <path d="M335.464 540.501c.114 5.276 1.033 47.619-10.878 65.064-5.576 8.166-12.906-10.891-11.305-17.128 8.74-34.054 9.007-33.962 12.832-68.978 4.495-41.146 1.928-51.06 4.681-44.238.609 1.51-.162 1.617 1.542 20.296 1.163 12.745 2.162 22.253 3.128 44.984" style="fill:#90d9f9" transform="translate(-12.162 -241.27)scale(2.67087)"/>
    <path d="M184.659 294.672c7.625-5.963 7.308-6.337 12.008-8.804 3.219-1.69 5.417 7.612 5.068 17.641-.839 24.11-23.752 49.716-26.936 53.275-.22.246-3.466 3.874-3.811 1.57-2.283-15.267-1.647-23.788-1.493-25.854 2.118-28.394 12.733-35.354 15.164-37.828" style="fill:#91dcfc" transform="translate(-12.162 -241.27)scale(2.67087)"/>
    <path d="m378.944 351.705-.563 6.772-1.028.574c-1.595-.162-2.442-.248-13.492-14.829-20.518-27.078-18.501-61.692-11.167-58.194.188.09 15.335 8.532 21.334 20.697 2.638 5.349 6.956 22.878 5.736 35.771-.022.237.008.22.099 2.971z" style="fill:#91dcfb" transform="translate(-12.162 -241.27)scale(2.67087)"/>
    <path d="M254.583 386.276c6.965 1.695 7.08.41 13.97 1.995 3.439.791 3.15 2.271 2.99 46.23-.02 5.447.702 12.819-1.937 11.667-19.41-8.481-24.748-61.317-23.236-62.776.501-.483.634-.213 8.213 2.884" style="fill:#90dcfb" transform="translate(-12.162 -241.27)scale(2.67087)"/>
    <path d="M298.573 384.665c3.525-2.082 3.647-1.517 4.145-1.334.33.12.118 1.697-.618 9.129-4.741 47.908-23.103 54.442-24.185 53.565-.992-.804-.469-52.592-.433-53.526.29-7.401 5.265-1.765 21.091-7.834" style="fill:#91dcfb" transform="translate(-12.162 -241.27)scale(2.67087)"/>
    <path d="M314.325 666.488c1.537-18.545 1.86-19.855 3.709-29.079.219-1.096 2.683-13.39 3.745-13.464 1.31-.091 2.323 4.271 3.287 7.673 10.584 37.358-4.006 48.888-8.325 96.91-1.897 21.092-.149 47.855-2.763 26.814-4.026-32.396-.202-81.767.347-88.854" style="fill:#90daf9" transform="translate(-12.162 -241.27)scale(2.67087)"/>
    <path d="M226.88 623.977c.259.466 1.209.172 1.468.639 2.282 4.104 4.686 21.058 4.949 22.915 5.928 41.801 4.078 79.064 3.737 85.937-.081 1.623-2.793 110.253-4.96 20.47-1.042-43.141-9.747-76.678-11.232-89.473-1.908-16.44 4.767-37.592 6.038-40.488" style="fill:#90d9f8" transform="matrix(2.67087 0 0 2.2166 -12.162 42.186)"/>
    <path d="M110.466 430.239c-.476.26-.49 1.049-.966 1.308-3.531 1.928-.322-2-.213-2.132 35.356-32.899 18.799-45.529 48.363-72.751 2.755-2.537 8.879-8.424 9.428-5.026 2.72 16.826-2.43 21.615-8.119 30.168-16.951 25.486-47.482 47.816-48.493 48.433" style="fill:#90dbfa" transform="translate(-12.162 -241.27)scale(2.67087)"/>
    <path d="M119.553 435.907c-1.862 1.103-2.224 1.564-2.121.987.373-2.098.971-1.69 1.327-2.309 15.631-17.473 33.748-30.642 51.209-65.817.851-1.713 5.378-10.834 17.538-16.252 4.949-2.206 2.484 16.016-8.419 30.693-8.508 11.453-25.488 25.248-28.744 28.103-.693.608-30.497 24.381-30.79 24.595m261.88-75.426.24-5.998.311-2.89c-.379-2.215-.555-2.26-.408-2.386.255-.221.63.712.886.491l.863.15c7.444 5.954 7.264 6.074 14.182 12.644 22.083 26.091 11.912 38.928 40.714 65.267 7.808 7.141-2.445.706-2.615.575-31.43-24.328-48.04-50.552-51.28-55.668-2.833-5.773-2.843-5.803-2.893-12.185M270.146 474.442l-.085.963c-.594 2.705-.374 2.724-5.148 34.224-.039.255-2.647 14.58-2.6 1.906.106-29.184-20.458-68.544-27.982-77.956-10.946-13.692 14.856 10.082 17.568 12.464 20.066 17.629 18.297 19.57 18.029 26.453-.006.157.016.145.218 1.946" style="fill:#90daf9" transform="translate(-12.162 -241.27)scale(2.67087)"/>
    <path d="M279.337 466.489c1.925-8.16 24.163-24.732 36.049-36.287 2.066-2.008 2.084.54 1.679 1.11-3.748 5.271-27.113 38.136-29.782 75.159-.122 1.684.205 9.406-.256 9.597-.357.148-1.11-.011-1.204-.031-.615-.13-3.144-17.04-3.367-18.53-2.339-15.647-2.645-16.926-3.119-31.018" style="fill:#91d9f8" transform="translate(-12.162 -241.27)scale(2.67087)"/>
    <path d="M288.227 524.737c8.389 55.88 17.658 53.434 18.941 65.807 1.288 12.416-7.808 29.075-15.223 9.786-6.146-15.986-5.502-50.423-5.419-54.83.355-19.017-1.174-20.781 1.701-20.763" style="fill:#90daf8" transform="translate(-12.162 -241.27)scale(2.67087)"/>
    <path d="M263.123 553.525c-.047 4.57-.564 54.963-12.614 55.716-.694.043-15.615-8.442-4.191-28.845 5.438-9.712 12.437-33.368 14.35-52.849.376-3.832 1.91-2.396 1.978-2.171.191.629.508 24.365.477 28.149" style="fill:#91daf9" transform="translate(-12.162 -241.27)scale(2.67087)"/>
    <path d="M361.374 366.533c-.267-1.019-2.482-9.487-1.89-13.037.619-3.71 10.059 3.627 11.267 4.794l4.046 3.77c1.512 1.675 1.358 1.676 2.603 3.461l3.502 6.646 1.721 3.295c7.275 12.492 7.168 13.554 19.495 28.345 18.932 22.716 29.229 30.801 29.657 31.693 1.718 3.583-2.236.456-2.387.336-45.2-35.749-53.768-45.927-57.723-50.626l-2.052-2.743c-4.72-7.74-5.332-7.384-8.239-15.934" style="fill:#8fd9f6" transform="translate(-12.162 -241.27)scale(2.67087)"/>
    <path d="M301.716 686.479c3.612 32.505 2.702 32.506 7.327 64.981.023.158-.921 5.994-1.949.435-5.864-31.71-22.854-67.686-15.549-103.386 2.667-13.03 2.079-13.293 3.007-13.959 2.534-1.818 1.391 1.234 3.096 15.932 2.091 18.031 2.167 17.915 4.068 35.997" style="fill:#90d9f8" transform="translate(-12.162 -241.27)scale(2.67087)"/>
    <path d="M244.415 718.492c.608-4.785-.006-4.828 6.467-59.942 2.697-22.962 1.723-24.444 3.648-24.122 1.159.195.62.764 1.747 6.125 6.656 31.665 4.539 36.363-6.068 79.885-.656 2.689-8.188 33.594-8.201 33.607-2.748 2.772-.975-1.798 2.407-35.553" style="fill:#90d9f7" transform="translate(-12.162 -241.27)scale(2.67087)"/>
    <path d="M237.615 426.372c-7.456-7.215-8.707-9.702-8.473-24.873.536-34.872-4.67-40.779.281-37.855 10.149 5.995 9.502 22.041 9.868 25.876 3.221 33.71 6.785 40.443 6.652 41.187-.471 2.639-7.845-3.973-8.328-4.335m82.619-20.874c-.252 1.621-.709 6.017-.88 7.973-.055.296.203 7.863-11.158 15.576-1.728 1.173-6.598 5.145-4.395-.468 3.822-9.742 7.04-49.69 7.674-53.084 1.407-7.538 8.93-12.197 8.984-12.204 5.062-.692-1.924 3.46-.225 42.207" style="fill:#90daf9" transform="translate(-12.162 -241.27)scale(2.67087)"/>
    <path d="M453.458 463.624c-1.707-.918-1.822-.659-4.899-3.194-16.86-13.893-1.816-24.421 4.947-24.825 7.518-.448 20.652 15.827 18.267 21.033-.309.674-8.315 8.77-18.315 6.986" style="fill:#92dcfa" transform="translate(-12.162 -241.27)scale(2.67087)"/>
    <path d="M92.634 435.984c.533-.079 5.796-2.515 13.625 5.734 7.025 7.402-3.834 18.376-9.031 21.309-6.364 3.59-23.192-4.314-19.891-10.6 5.678-10.811 13.747-15.535 15.297-16.443" style="fill:#91dcfb" transform="translate(-12.162 -241.27)scale(2.67087)"/>
    <path d="M332.504 244.496c14.962 14.936 18.822 20.851 28.89 41.041 3.098 6.212-3.489.139-8.62-3.407-17.912-12.377-23.478-23.315-24.777-25.869-.725-1.424-2.482-6.501-1.497-10.761 1.608-6.959 4.533-2.304 6.004-1.004" style="fill:#90dbf9" transform="translate(-12.162 -241.27)scale(2.67087)"/>
    <path d="M199.57 279.586c-11.142 8.935-12.152 9.178-12.359 8.018-.928-5.198 30.74-51.35 34.362-45.167 6.18 10.55-7.662 24.361-9.22 25.915-6.068 6.055-6.149 5.855-12.783 11.234" style="fill:#90dbfa" transform="translate(-12.162 -241.27)scale(2.67087)"/>
    <path d="M251.423 360.118c.8-.129 15.333-3.124 17.916-.476 1.546 1.586 1.447 20.387 1.273 20.909-.754 2.275-21.033 2.92-25.648-9.226-4.295-11.306 5.84-11.05 6.459-11.207" style="fill:#91dbfc" transform="translate(-12.162 -241.27)scale(2.67087)"/>
    <path d="M300.431 360.775c9.758 2.815 4.325 19.896-13.917 20.902-5.798.32-8.402 1.67-8.277-4.183.357-16.642.8-17.171 1.443-17.837 2.181-2.26 19.115.821 20.751 1.118" style="fill:#91dcfb" transform="translate(-12.162 -241.27)scale(2.67087)"/>
    <path d="M260.535 352.843c-8.135 1.32-7.977 1.818-16.081 3.367-2.793.534-4.54-12.415 1.291-16.351 7.503-5.066 24.137-13.329 24.426 1.653.057 2.987.55 10.816-1.672 10.982-.636.047-.59.026-7.964.349" style="fill:#90dbfa" transform="translate(-12.162 -241.27)scale(2.67087)"/>
    <path d="M289.45 352.917c-3.987-.178-3.914-.263-7.952-.355-3.593-.081-2.739-6.237-2.641-12.044.255-15.105 24.52-3.458 27.429 3.07 1.148 2.576.178 11.415.007 11.82-.529 1.256-1.016.7-16.843-2.491" style="fill:#91dbfa" transform="translate(-12.162 -241.27)scale(2.67087)"/>
    <path d="M289.424 312.854c.695.216 13.944.432 17.756 20.629.807 4.279-9.966-6.75-23.68-6.844-.14-.001-5.98 2.669-4.569-8.081 1.089-8.297 7.334-6.004 10.493-5.704" style="fill:#90daf9" transform="translate(-12.162 -241.27)scale(2.67087)"/>
    <path d="M260.531 312.678c3.487-.25 9.711-2.166 9.661 8.818-.027 6.051-2.215 5.06-5.685 5.172-13.024.422-23.423 11.034-22.662 6.811 3.656-20.272 16.858-20.321 18.686-20.801" style="fill:#90dbfa" transform="translate(-12.162 -241.27)scale(2.67087)"/>
    <path d="M302.479 241.068c-12.518.826-17.488 1.607-15.627-1.391 8.915-14.359 9.237-14.602 10.655-14.396 3.234.469 15.541 6.294 23.758 12.519 6.074 4.602-2.246 2.508-18.786 3.268" style="fill:#91dbf9" transform="translate(-12.162 -241.27)scale(2.67087)"/>
    <path d="M246.525 241.046c-9.084-.189-8.986-.136-18.017.073-8.925.207 13.002-12.979 22.967-15.789 2.373-.669 5.203 5.449 10.514 13.918 2.506 3.996-4.514 2.409-15.464 1.798" style="fill:#91dbfa" transform="translate(-12.162 -241.27)scale(2.67087)"/>
    <path d="M320.464 798.435c.462-.229 4.735-2.355 6.073-2.179 2.084.273 1.393 1.131 2.952 5.248 2.368 6.251 5.792 5.907 7.622 9.182 2.703 4.836-20.715 5.274-22.474.755-4.106-10.552.899-10.202 5.827-13.006" style="fill:#90daf9" transform="translate(-12.162 -241.27)scale(2.67087)"/>
    <path d="M221.058 798.34c1.187-2.588 1.726-2.704 4.372-1.644 11.689 4.683 11.271 7.687 11.115 8.81-1.014 7.287-1.714 8.29-9.067 8.722-9.12.537-20.817.244-11.917-6.644 4.422-3.422 3.647-4.02 5.497-9.244" style="fill:#94dcf8" transform="translate(-12.162 -241.27)scale(2.67087)"/>
    <path d="m187.462 280.396-.814.922c-.127-.492-1.551-17.572 5.328-27.461 3.075-4.421 11.875-10.06 13.455-10.52 9.454-2.753 9.189-3.547 10.04-3.598 5.398-.325-5.109 2.514-17.341 20.511-9.739 14.328-8.312 16.597-10.668 20.146" style="fill:#92daf6" transform="translate(-12.162 -241.27)scale(2.67087)"/>
    <path d="M362.558 280.592c-3.828-2.904-1.26-4.623-9.56-17.423-11.004-16.97-16.981-19.512-20.022-22.001-.616-.504-.165-1.893 1.47-1.284 12.908 4.808 17.501 7.737 21.848 12.785 7.086 8.229 6.886 25.491 6.264 27.923" style="fill:#8fd9f7" transform="translate(-12.162 -241.27)scale(2.67087)"/>
    <path d="m342.405 292.156 1.249.245c-9.785 45.453-15.38 48.863-15.044 45.076.162-1.823 2.418-7.778 2.262-17.989-.094-6.169-3.149-10.405 2.078-16.616 4.637-5.511 4.949-5.143 9.455-10.716" style="fill:#8fd8f6" transform="translate(-12.162 -241.27)scale(2.67087)"/>
    <path d="M217.489 304.508c4.905 7.798-2.147 11.834 2.469 29.973.053.206 1.521 10.012-2.012 1.739-7.583-17.76-12.919-43.922-12.078-44.242 1.62-.614 10.793 11.442 11.621 12.53" style="fill:#8fd9f8" transform="translate(-12.162 -241.27)scale(2.67087)"/>
    <path d="M234.496 779.505c6.659 5.91 12.835 9.638 11.919 18.976-.44 4.485-7.742-1.714-17.1-5.553-4.535-1.86-3.524-3.179-1.984-6.502 1.298-2.802 2.371-7.84 2.759-8.302 1.831-2.175 2.05-.174 4.406 1.381" style="fill:#91dcf8" transform="translate(-12.162 -241.27)scale(2.67087)"/>
    <path d="M318.588 793.698c-13.68 6.371-14.805 8.356-15.307 5.913-1.085-5.281-.595-10.347 12.501-20.713 5.155-4.081 3.857 1.395 6.505 7.689 1.436 3.411 1.57 3.364 1.478 3.969-.207 1.373-.668.98-5.177 3.142" style="fill:#90dbf9" transform="translate(-12.162 -241.27)scale(2.67087)"/>
    <path d="M243.269 670.35c-5.313-.098 1.24-3.731.071-38.847-.334-10.046 17.939-26.123 11.997-16.064-3.233 5.473-3.258 5.558-12.068 54.911" style="fill:#8ed1f1" transform="translate(-12.162 -241.27)scale(2.67087)"/>
    <path d="M293.767 612.89c.129.009.567-.756 1.421.09 15.992 15.854 8.847 19.165 11.75 46.514.076.712 3.067 28.892-1.103 8.879-4.475-21.479-4.882-41.093-12.616-54.896z" style="fill:#8dd2f2" transform="translate(-12.162 -241.27)scale(2.67087)"/>
    <path d="M192.367 346.307c-.403.243-8.335 5.035-5.744 1.237 3.207-4.704 3.566-4.364 6.673-9.17 9.554-14.779 10.576-30.335 11.225-30.775 2.145-1.453 2.144 17.121.031 22.917-3.596 9.858-8.967 13.237-12.185 15.791" style="fill:#8fd6f5" transform="translate(-12.162 -241.27)scale(2.67087)"/>
    <path d="M343.209 318.498c.234-8.343.206-8.29.253-9.01.192-2.966 1.771-1.688 1.876-.911.429 3.159 3.12 23.005 15.374 36.772 7.46 8.382-4.687.92-7.845-2.249-10.157-10.193-9.376-18.283-9.658-24.602" style="fill:#8ed7f4" transform="translate(-12.162 -241.27)scale(2.67087)"/>
    <path d="M233.434 609.131c6.077-.447 15.646-2.286 10.302 8.486-6.652 13.409-10.662 3.338-10.962 2.747-4.756-9.348-2.339-10.345.66-11.233" style="fill:#90daf9" transform="translate(-12.162 -241.27)scale(2.67087)"/>
    <path d="M314.453 608.928c1.187.139 9.679-.52 1.091 13.6-4.834 7.947-15.733-11.077-9.076-13.111 3.494-1.067 6.65-.526 7.985-.489" style="fill:#91dbf9" transform="translate(-12.162 -241.27)scale(2.67087)"/>
    <path d="M276.986 244.414c10.892-23.105 4.624-26.385 10.821-30.477.315-.207 4.82-3.181 4.696-.437-.825 18.269-14.057 31.547-14.185 31.532-.117-.014-.099-.046-1.332-.618" style="fill:#90d7f6" transform="translate(-12.162 -241.27)scale(2.67087)"/>
    <path d="M270.499 244.503c-13.429-14.223-15.8-33.856-11.936-32.233 9.423 3.959 2.899 8.554 13.244 31.295-.111.461.396.309.276.805-.03.123-.112.009-1.584.133" style="fill:#8fd8f6" transform="translate(-12.162 -241.27)scale(2.67087)"/>
    <path d="M272.513 215.84c1.654.05 3.31-.035 4.964.014 5.659.17 2.913 5.636-1.782 20.775-.396 1.277-1.754 1.414-2.217-.116-.307-1.012-.573-2.035-.887-3.045-3.966-12.756-7.044-16.284-.078-17.628" style="fill:#8fd9f8" transform="translate(-12.162 -241.27)scale(2.67087)"/>
    <path d="M235.627 765.054c3.527.967 10.012.829 10.152 6.44.262 10.504-.506 10.622-1.363 10.754-.327.05-11.361-8.94-12.274-11.622-2.125-6.249 2.963-5.635 3.485-5.572" style="fill:#90daf9" transform="translate(-12.162 -241.27)scale(2.67087)"/>
    <path d="M313.415 765.213c7.724-1.673 3.33 6.729 2.956 7.184-.784.953-9.77 8.998-9.893 9.065-3.215 1.742-2.67-6.397-2.682-6.968-.203-9.184 3.534-7.695 9.619-9.281" style="fill:#90d9f7" transform="translate(-12.162 -241.27)scale(2.67087)"/>
    <path d="M232.423 312.9c.636.132 9.015 1.871 5.515 5.954-4.849 5.658-18.044-7.853-13.461-8.441.661-.085.465.706 7.946 2.487" style="fill:#91daf5" transform="translate(-12.162 -241.27)scale(2.67087)"/>
    <path d="M317.568 312.796c6.403-1.846 8.934-3.171 7.635-.384-5.15 11.052-16.874 8.112-14.261 3.278 1.841-3.407 2.809-1.99 6.626-2.894" style="fill:#90d9f5" transform="translate(-12.162 -241.27)scale(2.67087)"/>
    <path d="M472.713 476.283c-8.896-9.327-10.234-9.605-8.955-10.541 2.374-1.738 2.891-1.582 4.848.663 1.918 2.2 24.377 25.221 4.107 9.878" style="fill:#94ddf6" transform="translate(-12.162 -241.27)scale(2.67087)"/>
    <path d="M78.496 462.504c.192 1.627.682 1.727-.261 2.811-2.98 3.426-18.018 21.01-15.442 13.343.709-2.11 1.059-1.879 8.778-11.1 3.093-3.694 2.214-6.018 6.925-5.054" style="fill:#90daf7" transform="translate(-12.162 -241.27)scale(2.67087)"/>
    <path d="M471.334 462.158c2.38.433 2.602.405 7.159 6.348.613.8 8.11 8.53 7.998 10.99-.077 1.69-2.049 1.273-15.608-14.278-1.258-1.442-.853-1.693.451-3.06" style="fill:#90daf8" transform="translate(-12.162 -241.27)scale(2.67087)"/>
    <path d="M76.39 476.39c-1.901 1.427-7.339 6.532-7.733 4.078-.24-1.497.482-1.225 12.203-14.496 2.336-2.645 4.287-.61 4.539-.347 1.07 1.117-1.685 3.37-9.009 10.765" style="fill:#8ddcf8" transform="translate(-12.162 -241.27)scale(2.67087)"/>
    <path d="M315.496 332.6c-.404-.086-4.168-.888-3.09-4.136.617-1.861 6.433-3.069 7.038-3.195 1.593-.331 9.003-4.145 5.716 1.05-3.091 4.884-5.599 5.924-9.664 6.281" style="fill:#90daf5" transform="translate(-12.162 -241.27)scale(2.67087)"/>
    <path d="M227.475 324.568c5.88 1.529 10.563 1.858 9.392 6.056-2.46 8.822-22.653-11.615-9.392-6.056" style="fill:#92daf5" transform="translate(-12.162 -241.27)scale(2.67087)"/>
    <path d="M310.305 809.538c.825 5.35-.664 6.701-5.834 5.044-1.038-.333-3.356-1.207-.974-8.083.554-1.597 2.899-2.838 3.998-2.831 2.303.014 2.732 5.537 2.81 5.87" style="fill:#92daf9" transform="translate(-12.162 -241.27)scale(2.67087)"/>
    <path d="M441.638 434.177c.432.197 4.328.745 1.688 3.151-2.985 2.72-4.325 4.779-5.842 3.188-.703-.737-.042-1.177-7.647-10.195-.789-.936.14-2.29 1.487-1.43 4.972 3.175 5.009 2.922 10.314 5.286" style="fill:#99d9f4" transform="translate(-12.162 -241.27)scale(2.67087)"/>
    <path d="M113.356 438.397c-3.294 4.623-4.299 1.833-5.944.197-2.219-2.206-3.264-2.167-2.244-3.335.718-.822 1.234.096 12.306-5.883 4.71-2.544-.7 3.546-4.118 9.021" style="fill:#8ed9f4" transform="translate(-12.162 -241.27)scale(2.67087)"/>
    <path d="M244.46 804.554c8.528 10.825-5.223 12.747-5.682 7.932-.102-1.074 1.329-7.536 1.715-7.991 1.48-1.749 1.819-.903 3.967.059" style="fill:#8edaf6" transform="translate(-12.162 -241.27)scale(2.67087)"/>
    <path d="M317.561 338.81c6.587-1.936 6.367-2.373 6.939-2.521 1.897-.491.949 6.144-6.126 8.784-4.664 1.74-8.465-4.198-.813-6.263" style="fill:#91d8f5" transform="translate(-12.162 -241.27)scale(2.67087)"/>
    <path d="M231.454 338.705c7.604 1.986 4.756 7.496.101 6.529-5.679-1.18-12.437-11.51-4.064-7.711.754.342.721.274 3.963 1.182" style="fill:#91d7f3" transform="translate(-12.162 -241.27)scale(2.67087)"/>
    <path d="M90.039 433.699c-6.897 6.784-31.439 7.691-25.303 4.034 1.24-.739 1.6 1.091 17.765-3.229 5.41-1.446 6.758-.951 7.538-.805" style="fill:#8edbf5" transform="translate(-12.162 -241.27)scale(2.67087)"/>
    <path d="M467.352 437.875c-6.525-2.588-6.805-2.789-7.323-3.161-3.964-2.849 5.091-.611 5.522-.504 18.245 4.509 19.515 2.703 19.612 4.307.189 3.156-16.416-.348-17.811-.642" style="fill:#90daf5" transform="translate(-12.162 -241.27)scale(2.67087)"/>
    <path d="M73.845 458.196c1.164 3.717-11.61 16.448-12.292 16.142-1.438-.644 2.414-6.455 2.745-6.954 6.496-9.799 7.815-9.996 9.547-9.188" style="fill:#8edaf4" transform="translate(-12.162 -241.27)scale(2.67087)"/>
    <path d="M475.32 458.376c1.561-1.04 2.353-.967 7.832 6.387 6.329 8.495 5.175 9.513 4.339 9.642-.078.013-11.967-10.565-12.171-16.029" style="fill:#8edaf5" transform="translate(-12.162 -241.27)scale(2.67087)"/>
    <path d="M230.455 351.672c3.595 1.044 5.424.104 4.891 3.804-1.07 7.427-13.791-3.761-9.796-5.808.378-.193.259.293 4.905 2.004" style="fill:#8ed8f4" transform="translate(-12.162 -241.27)scale(2.67087)"/>
    <path d="M316.437 357.77c-5.451-2.343-1.235-5.222-.005-5.541 6.33-1.645 8.817-3.814 7.715-.804-2.262 6.175-6.912 6.32-7.71 6.345" style="fill:#8fd7f4" transform="translate(-12.162 -241.27)scale(2.67087)"/>
    <path d="M90.493 467.554c4.27.617.867 2.77-4.669 7.347-.425.352-6.494 5.37-6.399 2.594.023-.669.181-.523 5.866-6.205 2.36-2.36 1.903-3.172 5.202-3.736" style="fill:#93dbf6" transform="translate(-12.162 -241.27)scale(2.67087)"/>
    <path d="M469.36 478.408c-5.083-1.381-14.42-10.087-11.79-10.714 2.92-.696 4.817 1.86 10.848 7.873 1.997 1.991.931 2.317.942 2.841" style="fill:#8ddbf2" transform="translate(-12.162 -241.27)scale(2.67087)"/>
    <path d="M244.591 672.103c1.41 1.059 1.369 1.604-.106 2.44-.42.238-1.418-.641-1.209-1.138.239-.569 1.076-.733 1.315-1.302" style="fill:#3f3b7d" transform="translate(-12.162 -241.27)scale(2.67087)"/>
</svg>
