<svg xmlns="http://www.w3.org/2000/svg" xml:space="preserve" style="fill-rule:evenodd;clip-rule:evenodd;stroke-linejoin:round;stroke-miterlimit:2" viewBox="0 0 1501 2000">
    <path d="M3601 0h1501v2000H3601z" style="fill:none" transform="translate(-3601)"/>
    <path d="M781.501 781.5c-3.701-17.901 5.04-24.201-5.317-57.908-12.908-42.007-9.479-64.499-8.628-70.083 2.755-18.074 5.453-18.224.958-36.012-7.227-28.597-5.377-83.729-8.416-102.943-2.611-16.505-3.609-16.329-4.024-33.025-.072-2.918-2.775-2.967-2.849-.051-.775 30.722-6.253 30.275-5.921 61.025.27 24.917-2.831 62.649-7.884 79.973-6.638 22.755 13.667 24.579-3.242 89.942-6.184 23.905-9.397 25.165-7.733 60.085.381 8.002-1.91 8.049-.464 15.906 2.243 12.197 6.363 21.323.434 27.979-5.703 1.529-8.268 1.619-34.936 1.425-.829-.114-8.52.266-8.024-5.316.479-5.397 8.071-1.309 13.634-14.177 2.691-6.226 2.392-6.29 6.093-12.03.656-1.017.77-1.194 2.944-14.849 1.143-7.179-.418-57.094-8.073-89.833-5.787-24.751-2.957-35.617-1.148-45.005 2.712-10.236 2.745-10.305 1.601-28.104l-1.657-6.091c-14.184-43.372-14.213-72.83-3.946-146.853 5.543-39.961 12.571-39.497 8.566-79.052-.406-4.018-.378-3.962-.763-8.003-.455-8.037-.449-7.956-1.612-15.889-4.341-11.039-5.616-10.341-10.913-20.934-.804-1.607-1.577-1.672-2.424-.02-2.57 5.009-2.363 5.048-5.279 9.825-4.803 6.322-5.942 7.003-10.853 24.072-1.489 3.609-10.145 24.589-28.199 39.819-51.035 42.941-50.301 43.891-53.061 49.058-1.227 2.298-4.188 7.843-23.533 22.516-4.322 3.278-4.983 4.95-9.54 2.956-4.011-1.756-3.747 5.91-10.705 2.452-1.977-.982-8.05 2.471-5.585-4.512-2.781-3.172-5.457-5.457 10.165-23.608 9.871-11.47 8.755-12.997 7.553-13.171-.234-.034-17.431 3.992-17.646-2.546-.166-5.053 6.267-1.311 19.378-6.144 11.686-4.309 16.477 2.795 23.899-4.036 32.534-29.941 28.225-55.536 51.138-76.849 4.217-3.923 8.005-4.406 9.035-13.988 3.955-36.782 10.546-34.726 15.698-47.122 6.457-15.535-6.336-41.363 28.374-51.563 12.489-3.671 13.069-2.128 24.189-8.824 10.588-6.376 20.274-6.285 20.55-11.51.882-16.674-1.663-16.286-3.622-21.076-1.968-4.814-.847-5.67-3.975-7.375-6.923-3.773-8.04-23.644-5.347-24.763 3.966-1.65-.09-6.876 1.706-19.847l.285-1.927c5.179-33.729 42.887-36.282 57.788-16.739 12.004 15.743 5.555 36.313 7.294 37.774 1.895 1.592 3.65 1.323 2.555 8.894-1.997 13.809-2.722 14.514-7.504 17.101-.91.492-1.175 1.566-1.271 1.905-1.068 3.757-1.001 3.672-2.448 7.229-3.946 8.946-3.599 9.128-2.898 18.802.386 5.321 6.531 3.293 22.357 12.526 22.376 13.055 45.504 2.831 48.377 41.505.954 12.85-.592 13.504 6.386 24.316 13.599 21.072 8.586 44.002 15.898 50.264 22.771 19.498 18.498 25.298 31.72 50.354.756 1.295 7.053 12.08 10.446 15.565l2.062 2.687 1.963 2.227 1.348 1.65 2.388 2.619c3.957 4.051 8.293 9.614 12.653 9.251 10.754-.893 10.815-.994 20.957 2.212 4.92 1.555 20.169 1.007 14.911 6.734-2.828 3.08-11.884 1.537-12.908 1.362-3.914-.667-4.391-1.548-4.877-.211-1.234 3.393 26.195 29.074 19.872 34.92-2.324 2.149 1.168 6.536-3.941 6.011-4.878-.501-5.406 2.336-9.31-.6-2.983-2.244-3.202-2.473-4.818-1.589-4.781 2.612-9.205-4.366-23.565-15.152-10.809-8.118-6.619-11.91-17.476-21.434-60.383-52.973-64.075-51.73-75.29-87.028-4.371-13.757-8.169-11.793-13.627-25.097-1.478-3.604-4.331 5.639-8.413 11.615-5.178 7.582-4.896 7.979-7.715 39.311-3.292 36.593 6.893 38.072 13.823 111.051 7.43 78.249-3.509 84.878-10.28 115.026-2.686 11.959.923 25.818 1.488 27.988 8.427 32.356-10.052 56.836-9.687 129.956.04 8.083 1.534 7.889 1.787 16.007.05 1.622 1.256 3.482 1.431 3.751 2.59 3.996 2.657 3.897 4.524 8.278 3.588 8.162 3.84 10.502 11.954 14.327 2.699 1.273 8.023 7.295-2.835 8.67l-1.934.326-.988.059c-20.041-.127-23.096-.196-25.104-.241-4.493-.489-4.473-.07-8.855-1.345-6.503-7.362-1.023-13.995 1.037-32.824z" style="fill:#3f4380" transform="translate(-1269.402 -247.86)scale(2.67666)"/>
    <path d="M733.424 295.551c5.17 7.226 6.302 15.827 13.238 22.796 1.376 1.382 5.386 1.97 2.909 18.163-2.998 19.609-23.311 50.067-25.973 54.059-.109.163-2.583 5.366-3.849 3.792-.101-.126 3.934-26.152-13.4-44.719-1.289-1.381-19.092-15.023-21.785-65.143-.29-5.394 2.701-2.532 7.927-.968 9.637 2.883 20.88 4.909 22.967 5.227 9.822 1.493 10.628.11 17.966 6.793m65.153-7.697c23.557-5.263 25.706-7.724 25.66-4.337-.592 43.47-17.441 61.497-21.203 65.522-23.284 24.913-9.634 55.048-16.319 44.285-17.933-28.874-28.795-44.953-28.228-69.825.091-4.012 6.065-4.074 12.598-20.154 6.114-15.05 11.641-12.729 27.492-15.491" style="fill:#92dcfc" transform="translate(-1269.402 -247.86)scale(2.67666)"/>
    <path d="M765.575 484.417c-18.911-20.987-.379-41.266 1.99-43.858 14.726-16.114 18.703-27.826 21.165-31.844.837-1.367 2.582.652 2.732.825 26.602 30.783 17.8 79.796 16.909 85.926-.517 3.554-2.26-.019-14.988-3.502-14.184-3.881-15.892 1.009-27.808-7.547" style="fill:#92ddfc" transform="translate(-1269.402 -247.86)scale(2.67666)"/>
    <path d="M700.207 475.51c.029-6.798-.429-12.441 1.605-26.967 2.663-19.011 15.153-42.951 18.296-39.694 3.981 4.126-.03 7.738 21.224 31.801 19.343 21.898 7.845 47.544-10.887 49.351-26.772 2.582-24.699 8.933-26.972 8.953-2.173.02-3.062-20.115-3.266-23.444" style="fill:#92dcfc" transform="translate(-1269.402 -247.86)scale(2.67666)"/>
    <path d="M777.474 226.599c2.234.711 20.265 6.453 26.603 12.296 4.72 4.352-12.356-2.561-28.19 31.783-2.218 4.812-7.112 29.088-16.753 43.417-2.896 4.303-1.507-2.74-2.448-104.596-.025-2.773-.937-16.099 2.048-13.431 3.546 3.169-4.175 21.981 18.74 30.531" style="fill:#91dbfb" transform="translate(-1269.402 -247.86)scale(2.67666)"/>
    <path d="M737.792 287.458c-1.989-7.141-5.01-24.675-19.674-38.519-8.819-8.326-17.282-7.617-11.903-10.843 26.841-16.098 32.412-9.289 39.078-22.699 4.276-8.604 3.514-13.348 3.952-17.963.199-2.095 2.7-1.966 2.86.132.185 2.424-.435 50.539-.491 54.933-.592 45.921-.303 60.934-.744 61.437-2.735 3.119-12.299-24.248-13.078-26.478" style="fill:#91dcfb" transform="translate(-1269.402 -247.86)scale(2.67666)"/>
    <path d="M776.752 540.569c11.349-42.284 11.135-42.408 11.849-42.97 1.818-1.431 2.311.773 2.462 28.822.002.332-1.934 57.403-2.046 59.053-.193 2.831-1.314 19.313-10.868 33.753-3.582 5.413-6.388-22.594-6.288-34.721.133-16.027 2.428-29.745 4.891-43.937m-52.106-30.114c6.418 21.134 19.282 66.969 8.813 109.022-1.167 4.691-11.222-15.499-12.647-28.015-1.209-10.614-3.474-92.421-1.325-93.983.95-.691 1.147.184 5.159 12.976m70.51 9.054c-.159-1.676-1.297-13.689-1.539-20.984-.016-.48.906-1.72 2.585-.525 1.182.842 25.78 11.573 11.142 88.473-2.782 14.618-4.382 21.389-5.665 17.9-8.405-22.858-5.251-62.805-6.523-84.864" style="fill:#91dbfa" transform="translate(-1269.402 -247.86)scale(2.67666)"/>
    <path d="M711.39 499.36c1.003-.688.918-.638 1.91-1.309 2.078-1.406 2.388-.053 2.232 2.451-1.711 27.505-1.401 27.428-1.691 55.001-.396 37.689-7.05 54.576-8.192 48.922-8.749-43.305-15.806-85.119 5.741-105.065m65.358-112.044c7.854 10.614 9.878 10.449 8.326 14.014-9.259 21.269-26.492 43.899-26.783 38.244-.776-15.092-.711-68.147-.704-74.073.016-13.027-1.072-17.822 1.119-14.414 3.274 5.092-1.972 7.829 18.042 36.229m-27.027-36.659c.477.23 1.111-.254 1.589-.025.759.366-.695 81.757-.822 88.865-.127 7.104-20.937-22.742-27.072-38.97-1.759-4.653 20.588-20.548 26.305-49.87m27.98 351.508c-8.254-7.098-8.896-34.702-5.708-49.552.462-2.156 5.664-26.39 5.984-26.904 7.786-12.514 9.781-18.972 9.906-13.32.124 5.608.705 31.904.021 70.118-.254 14.144-1.945 22.795-10.203 19.658" style="fill:#91dbfb" transform="translate(-1269.402 -247.86)scale(2.67666)"/>
    <path d="M722.145 692.552c-.766-8.773-1.53-59.887-.632-81.047.008-.194.849-2.721 2.308.744 4.363 10.363 6.746 9.308 9.224 20.344 7.737 34.448 6.886 41.702 4.197 57.863-.211 1.266-2.608 15.678-10.701 11.964-2.466-1.132-4.21-9.024-4.396-9.868" style="fill:#90dafb" transform="translate(-1269.402 -247.86)scale(2.67666)"/>
    <path d="M794.211 611.474c.452-4.544 1.308-19.448 2.586-12.255 1.841 10.365 4.5 9.788 4.488 13.282-.051 15.486 2.441 15.029 5.802 30.08 8.743 39.154-13.523 61.778-14.698 44.93-1.879-26.927 1.365-69.969 1.822-76.037" style="fill:#91dbfa" transform="translate(-1269.402 -247.86)scale(2.67666)"/>
    <path d="m713.402 597.777.806.854c.319 6.354.314 6.314.345 6.863 2.248 40.008 4.081 39.919 2.519 79.991-.571 14.632-10.061 4.205-12.375-1.07-10.855-24.753 2.438-58.512 2.687-59.939 1.524-8.736-1.294-9.344 2.849-17.114 3.172-5.947.677-7.164 3.169-9.585" style="fill:#90dbfa" transform="translate(-1269.402 -247.86)scale(2.67666)"/>
    <path d="M683.659 244.921c7.352-2.314 7.271-2.316 14.83-3.574 4.296-.715 2.509 13.815-2.321 21.943-1.392 2.342-9.308 15.66-27.699 19.82-1.768.4-1.749-4.215-1.748-4.61.104-26.268 10.635-30.591 16.938-33.579" style="fill:#91dbfb" transform="translate(-1269.402 -247.86)scale(2.67666)"/>
    <path d="M824.407 244.731c7.901 3.659 16.92 7.606 17.53 31.759.12 4.725 1.035 7.601-3.449 6.047-35.65-12.361-31.302-40.848-29.022-41.214 3.965-.637 13.791 2.984 14.941 3.408" style="fill:#92dcfb" transform="translate(-1269.402 -247.86)scale(2.67666)"/>
    <path d="M824.227 313.461c4.295-26.951 3.23-27.04 3.707-30.777.024-.186.208-1.626 2.345.122 20.204 16.528 10.697 37.986 9.268 50.698-1 8.899 5.007 14.562-1.077 12.095-17.93-7.27-15.267-22.698-14.243-32.138" style="fill:#91dbfa" transform="translate(-1269.402 -247.86)scale(2.67666)"/>
    <path d="M788.53 284.886c-4.588.18-11.942 2.239-10.606-3.287 5.543-22.928 22.994-36.043 24.503-35.002.731.504-.396 18.89 14.721 29.339.174.121 2.625 1.815.389 2.618-13.551 4.868-20.945 5.276-29.007 6.332m-76.084-1.034c-1.769-.301-20.114-3.426-21.721-5.585-1.036-1.392 3.105-3.918 3.384-4.179 12.627-11.789 11.508-24.714 11.677-26.531.723-7.75 25.009 22.133 25.449 35.946.048 1.503-.755 2.385-18.789.349" style="fill:#91dcfb" transform="translate(-1269.402 -247.86)scale(2.67666)"/>
    <path d="M669.256 336.445c-.977-22.453-12.013-32.659 8.329-52.845.183-.181 2.948-2.925 3.211-.197 1.503 15.597 1.624 15.496 3.92 31.066 2.147 14.562-3.09 22.424-4.172 24.049l-3.677 3.481c-3.46 2.607-11.305 7.011-8.664 1.411 1.555-3.296.924-3.385 1.053-6.965" style="fill:#90dbfb" transform="translate(-1269.402 -247.86)scale(2.67666)"/>
    <path d="M741.706 581.349c-.088-1.087.292-44.411-15.041-79.917-1.704-3.945-2.57-4.106-1.536-5.233.355-.387 12.997-1.432 20.301-7.96 2.821-2.521 1.049 1.562-.898 20.264-4.205 40.39.022 40.47-.856 65.038-.014.391-.146.369-.424 4.877-.162 2.641-1.281 2.429-1.546 2.931" style="fill:#8fd8f8" transform="translate(-1269.402 -247.86)scale(2.67666)"/>
    <path d="M770.588 546.522c-2.953 12.805-2.223 32.263-2.914 34.136-1.815 4.917-1.842-6.583-1.844-7.176-.076-32.564 2.326-32.583-1.022-65.018-1.731-16.768-3.552-22.375-.357-19.88 1.162.908 7.968 6.224 17.034 7.021 4.259.374 2.943 2.188 1.713 4.777-5.353 11.264-12.167 36.819-12.61 46.14" style="fill:#8fd6f6" transform="translate(-1269.402 -247.86)scale(2.67666)"/>
    <path d="m584.431 439.601.98.966c1.19 1.396 6.684 5.7-.042 14.836-9.623 13.07-17.535 7.542-23.66 4.756-9.324-4.242-2.366-11.442 3.25-18.28 9.505-11.573 16.323-4.456 19.472-2.278" style="fill:#91dcfa" transform="translate(-1269.402 -247.86)scale(2.67666)"/>
    <path d="M939.437 463.322c-4.85.911-6.727 2.096-14.61-6.124-12.8-13.347 4.968-26.57 14.574-19.569.141.103 14.75 13.301 11.836 18.744-1.62 3.026-4.695 4.016-11.8 6.949" style="fill:#91dcfb" transform="translate(-1269.402 -247.86)scale(2.67666)"/>
    <path d="M884.494 398.47c-16.494-8.72-33.921-15.231-42.756-42.047-.126-.385-1.746-5.302.76-5.003 14.703 1.755 18.695 11.188 19.422 12.906.862 2.036 5.881 13.897 14.047 23.795 6.127 7.427 8.202 6.211 8.527 10.349" style="fill:#90daf9" transform="translate(-1269.402 -247.86)scale(2.67666)"/>
    <path d="M584.431 439.601c17.748-24.849 58.926-46.67 63.701-50.562 16.286-13.276 24.273-40.702 18.139-20.575-8.679 28.48-41.092 41.608-48.55 46.383-28.43 18.203-26.18 21.052-32.31 25.72z" style="fill:#92d5f2" transform="translate(-1269.402 -247.86)scale(2.67666)"/>
    <path d="M842.214 367.499c-1.527-6.874 1.898.118 1.946.267 3.15 6.286 7.844 16.153 23.579 26.368 11.599 7.53 13.16 5.197 41.68 29.486l.974.967a869 869 0 0 1 7.559 6.693c1.961 1.755 3.036 1.575 2.195 3.047-1.326 2.321-1.615.032-3.724-1.642-39.613-31.423-60.865-28.521-74.209-65.186" style="fill:#8fd6f4" transform="translate(-1269.402 -247.86)scale(2.67666)"/>
    <path d="M650.654 382.781c-10.179 8.157-10.949 6.798-22.233 13.443-.272.16-6.58 3.875-3.934.27 3.156-4.3 5.638-2.284 18.123-22.942 2.226-6.137 2.606-5.888 5.076-11.955 2.276-5.588 21.721-13.562 20.141-8.057-.477 1.662-1.052 3.294-1.528 4.955-5.061 12.115-7.838 16.256-15.645 24.286" style="fill:#aae2fa" transform="translate(-1269.402 -247.86)scale(2.67666)"/>
    <path d="M707.078 374.531c-1.013-10.351-.784-10.315-1.412-14.046-3.514-20.898 19.916 28.912 6.386 47.689-3.473 4.82-3.109 5.109-3.596 5.261-.33.104-1.607-.748-1.6-.96.196-6.286 2.359-6.256.222-37.944" style="fill:#8fd8f7" transform="translate(-1269.402 -247.86)scale(2.67666)"/>
    <path d="M624.724 391.744c-1.955 2.342-10.852 12.998-26.279 27.627l-1.446-.119c7.178-11.61 10.89-9.309 25.646-41.678 1.552-3.793 1.5-3.709 3.565-7.282.69-1.367 3.342-8.765 19.327-22.557 1.28.838 1.836 1.48-4.399 18.615-3.737 10.269-8.931 16.022-12.389 20.347-2.878 3.495-2.914 3.399-4.025 5.047" style="fill:#90daf8" transform="translate(-1269.402 -247.86)scale(2.67666)"/>
    <path d="M624.724 391.744c-1.955 2.342-10.852 12.998-26.279 27.627l-1.446-.119c7.178-11.61 10.89-9.309 25.646-41.678 1.552-3.793 1.5-3.709 3.565-7.282.69-1.367 3.342-8.765 19.327-22.557 1.28.838 1.836 1.48-4.399 18.615-3.737 10.269-8.931 16.022-12.389 20.347-2.878 3.495-2.914 3.399-4.025 5.047" style="fill:#90daf8" transform="scale(-2.67666 2.67666)rotate(.555 9666.082 -106415.002)"/>
    <path d="M711.138 730.543c-2.907-21.741-2.917-21.689-5.878-37.065-.692-3.597 2.659-.869 4.205 3.038 2.392 6.047 7.52 19.007 7.012 80.981-.019 2.371-2.205 2.5-2.323.08-.826-16.953-.035-16.907-3.016-47.034" style="fill:#8bcfef" transform="translate(-1269.402 -247.86)scale(2.67666)"/>
    <path d="M795.231 718.468c.296-2.239 3.571-26.958 8.266-26.997 1.592-.014-.28 5.459-.579 7.093-7.949 43.464-7.596 79.39-7.758 79.818-.104.276-2.295 2.007-2.29-2.899.037-32.949 1.922-52.471 2.361-57.015" style="fill:#8dcff1" transform="translate(-1269.402 -247.86)scale(2.67666)"/>
    <path d="M801.859 371.532c-2.54 28.221-1.287 28.25-1.088 33.056.157 3.777-6.375-4.271-7.999-10.151-3.928-14.221 13.216-51.338 10.466-34.956-.432 2.575-.35 2.561-1.379 12.051" style="fill:#8fd8f7" transform="translate(-1269.402 -247.86)scale(2.67666)"/>
    <path d="M852.621 331.436c.553 1.225 5.478 12.137 4.914 16.068-1.213 8.45-13.658 2.467-13.472-12.005.017-1.311.411-31.96 3.491-16.019.697 3.609 4.585 11.035 5.067 11.956" style="fill:#90dbf9" transform="translate(-1269.402 -247.86)scale(2.67666)"/>
    <path d="M693.816 558.55c-.17-.27.264-.681.095-.951-.209-.332-.89-.191-1.039-.554-4.57-11.153 1.803-103.989 4.692-68.552 1.597 19.588-1.935 19.361-3.226 38.992-1.323 20.133.678 25.205-.522 31.065" style="fill:#8acded" transform="translate(-1269.402 -247.86)scale(2.67666)"/>
    <path d="M813.534 481.398c2.639 3.855 5.57 46.381 4.441 55.246-.279 2.192.131 11.988-1.061 17.311-4.093 18.275 2.118-19.25-5.168-48.492-.713-2.866-.762-21.153 1.788-24.065" style="fill:#8ed1f0" transform="translate(-1269.402 -247.86)scale(2.67666)"/>
    <path d="M652.789 328.633c-.264.559-2.328 4.933-2.936 7.14-1.03 3.733-2.354 1.96-2.38 1.727-.058-.534 2.223-15.687 4.33-21.899 4.715-13.899 15.384-31.099 11.64-18.112-4.578 15.881-4.415 15.881-10.654 31.144" style="fill:#8ed5f3" transform="translate(-1269.402 -247.86)scale(2.67666)"/>
    <path d="m844.506 293.504 1.056-.246c12.985 16.944 15.165 40.064 15.384 41.288 3.063 17.191-16.088-31.883-16.44-41.042" style="fill:#90d6f4" transform="translate(-1269.402 -247.86)scale(2.67666)"/>
    <path d="M733.324 704.598c-10.048 27.04-9.02 51.185-10.267 55.637-2.022 7.226-1.405-7.116-1.378-7.744 1.7-39.506 3.944-46.787 11.645-47.893" style="fill:#8ac9ea" transform="translate(-1269.402 -247.86)scale(2.67666)"/>
    <path d="M775.768 704.568c12.051 1.47 10.347 27.471 12.222 53.048.013.18-.568 7.504-2.117.779-.323-1.406-.605-31.921-10.105-53.827" style="fill:#89caeb" transform="translate(-1269.402 -247.86)scale(2.67666)"/>
    <path d="M664.207 341.379c-.494 1.09-6.051 13.381-11.436 9.647-2.998-2.079-.341-10.585-.067-11.46.788-2.613.844-2.489 1.642-5.176l.807-1.197c2.666-5.483 4.939-7.522 6.474-16.633.178-1.053 1.723-1.844 1.937.915 1.44 18.551 1.049 18.558 1.045 20.008-.114 2.026-.044 1.927-.402 3.896" style="fill:#90daf6" transform="translate(-1269.402 -247.86)scale(2.67666)"/>
    <path d="M624.462 414.889c.77 1.988-.217 2.03-12.369 12.173-2.784 2.324-19.654 18.473-19.446 11.441.089-3.022 19.718-14.337 30.006-22.685.127-.102.134-.069 1.809-.929" style="fill:#8ccfed" transform="translate(-1269.402 -247.86)scale(2.67666)"/>
    <path d="M771.576 204.472c.177 1 3.068 17.286-1.701 12.583-1.131-1.116-6.683-6.591-7.12-18.537-.044-1.207 3.485-3.663 8.821 5.954" style="fill:#90d9f8" transform="translate(-1269.402 -247.86)scale(2.67666)"/>
    <path d="M739.695 200.693c2.352-2.115 2.102-2.346 4.929-3.819 1.904-.992 1.071 5.189 1.01 5.644-1.66 12.306-9.143 17.777-9.234 13.999-.351-14.539 2.825-15.245 3.295-15.824" style="fill:#8fdaf6" transform="translate(-1269.402 -247.86)scale(2.67666)"/>
    <path d="M913.45 439.927c-3.726-1.194-3.63-1.36-6.582-3.903-20.164-17.372-20.51-16.959-22.044-18.689-3.136-3.536 1.818-1.37 6.546 2.369 12.851 10.168 31.236 18.721 22.08 20.223" style="fill:#8dd2f0" transform="translate(-1269.402 -247.86)scale(2.67666)"/>
    <path d="M543.338 477.362c9.596-11.716 13.817-18.03 15.814-14.516.957 1.684-20.226 25.513-15.814 14.516" style="fill:#90dbf5" transform="translate(-1269.402 -247.86)scale(2.67666)"/>
    <path d="M966.035 480.163c-1.67-.351-3.405-.716-15.4-14.77-2.584-3.028.61-4.771 2.6-2.626 12.554 13.538 12.69 15.672 12.8 17.396" style="fill:#8fdcf7" transform="translate(-1269.402 -247.86)scale(2.67666)"/>
    <path d="M952.041 475.984c-7.804-7.862-7.845-7.809-8.498-8.515-2.233-2.417 2.465-2.894 2.905-2.714.352.145 12.99 13.683 13.406 14.701 2.005 4.905-7.292-3.028-7.813-3.472" style="fill:#8ddcf6" transform="translate(-1269.402 -247.86)scale(2.67666)"/>
    <path d="M556.352 476.349c-.517.398-9.529 7.351-7.516 3.167 1.303-2.71 3.334-2.69 12.072-13.535 2.153-2.672 5.92-.377 4.381 1.384-.429.491-8.22 8.268-8.937 8.984" style="fill:#90dbf5" transform="translate(-1269.402 -247.86)scale(2.67666)"/>
    <path d="M945.633 437.26c-4.788-2.192-7.164-2.599-6.751-3.655 1.126-2.874 2.524 2.121 23.655 3.744 8.471.651-3.569 4.978-16.904-.089" style="fill:#92dbf5" transform="translate(-1269.402 -247.86)scale(2.67666)"/>
    <path d="M562.503 437.507c-17.629 4.648-18.885 1.046-17.782.148 1.061-.862 1.587 1.613 16.833-2.936.606-.181 9.302-2.776 7.898-.253-.295.53-.414.4-6.949 3.041" style="fill:#8fdaf5" transform="translate(-1269.402 -247.86)scale(2.67666)"/>
    <path d="M958.582 459.426c.845 1.055 13.82 17.262 7.942 14.909-.477-.191-11.903-13.53-12.066-14.833-.041-.328.008-4.603 4.124-.076" style="fill:#8fdaf6" transform="translate(-1269.402 -247.86)scale(2.67666)"/>
    <path d="M553.906 458.158c1.08 3.641-11.52 16.147-12.309 15.994-2.348-.454 9.157-17.761 11.808-16.493.213.101.288.397.501.499" style="fill:#8cdbf6" transform="translate(-1269.402 -247.86)scale(2.67666)"/>
    <path d="M559.84 478.286c-.022-.947-.573-1.145.822-2.654 7.915-8.565 9.763-8.282 10.834-8.118 3.391.519-7.113 9.858-11.656 10.772" style="fill:#90ddf7" transform="translate(-1269.402 -247.86)scale(2.67666)"/>
    <path d="M936.573 467.631c3.968-.486 4.706 1.173 11.63 8.112 6.426 6.439-2.207 1.517-2.384 1.385-8.842-6.63-9.135-7.668-9.413-8.652z" style="fill:#91daf7" transform="translate(-1269.402 -247.86)scale(2.67666)"/>
    <path d="M719.511 598.724c-.274-.271-.878.172-1.152-.099-1.07-1.059 1.877-3.403 1.887-1.125.002.476-.737.748-.735 1.224" style="fill:#5b5696" transform="translate(-1269.402 -247.86)scale(2.67666)"/>
</svg>
